<?xml version="1.0" encoding="UTF-8" standalone="no"?>
<!-- Created with Inkscape (http://www.inkscape.org/) -->

<svg
   xmlns:ns0="http://www.iki.fi/pav/software/textext/"
   xmlns:dc="http://purl.org/dc/elements/1.1/"
   xmlns:cc="http://creativecommons.org/ns#"
   xmlns:rdf="http://www.w3.org/1999/02/22-rdf-syntax-ns#"
   xmlns:svg="http://www.w3.org/2000/svg"
   xmlns="http://www.w3.org/2000/svg"
   xmlns:xlink="http://www.w3.org/1999/xlink"
   xmlns:sodipodi="http://sodipodi.sourceforge.net/DTD/sodipodi-0.dtd"
   xmlns:inkscape="http://www.inkscape.org/namespaces/inkscape"
   width="2030.1448"
   height="480.14459"
   id="svg3914"
   version="1.1"
   inkscape:version="0.48.5 r10040"
   sodipodi:docname="modelo-pastilla.svg">
  <sodipodi:namedview
     id="base"
     pagecolor="#ffffff"
     bordercolor="#666666"
     borderopacity="1.0"
     inkscape:pageopacity="0.0"
     inkscape:pageshadow="2"
     inkscape:zoom="0.49497475"
     inkscape:cx="474.26717"
     inkscape:cy="507.76729"
     inkscape:document-units="px"
     inkscape:current-layer="layer1"
     showgrid="false"
     fit-margin-top="0"
     fit-margin-left="0"
     fit-margin-right="0"
     fit-margin-bottom="0"
     inkscape:window-width="1920"
     inkscape:window-height="1014"
     inkscape:window-x="0"
     inkscape:window-y="27"
     inkscape:window-maximized="1" />
  <defs
     id="defs3916">
    <marker
       style="overflow:visible"
       id="Arrow1Lend"
       refX="0"
       refY="0"
       orient="auto"
       inkscape:stockid="Arrow1Lend">
      <path
         inkscape:connector-curvature="0"
         transform="matrix(-0.8,0,0,-0.8,-10,0)"
         style="fill-rule:evenodd;stroke:#000000;stroke-width:1pt"
         d="M 0,0 5,-5 -12.5,0 5,5 0,0 z"
         id="path3762" />
    </marker>
    <marker
       style="overflow:visible"
       id="Arrow1Lstart"
       refX="0"
       refY="0"
       orient="auto"
       inkscape:stockid="Arrow1Lstart">
      <path
         inkscape:connector-curvature="0"
         transform="matrix(0.8,0,0,0.8,10,0)"
         style="fill-rule:evenodd;stroke:#000000;stroke-width:1pt"
         d="M 0,0 5,-5 -12.5,0 5,5 0,0 z"
         id="path3842" />
    </marker>
    <marker
       style="overflow:visible"
       id="Arrow1Lend-8"
       refX="0"
       refY="0"
       orient="auto"
       inkscape:stockid="Arrow1Lend">
      <path
         inkscape:connector-curvature="0"
         transform="matrix(-0.8,0,0,-0.8,-10,0)"
         style="fill-rule:evenodd;stroke:#000000;stroke-width:1pt"
         d="M 0,0 5,-5 -12.5,0 5,5 0,0 z"
         id="path3762-7" />
    </marker>
  </defs>
  <metadata
     id="metadata3919">
    <rdf:RDF>
      <cc:Work
         rdf:about="">
        <dc:format>image/svg+xml</dc:format>
        <dc:type
           rdf:resource="http://purl.org/dc/dcmitype/StillImage" />
        <dc:title />
      </cc:Work>
    </rdf:RDF>
  </metadata>
  <g
     inkscape:label="Layer 1"
     inkscape:groupmode="layer"
     id="layer1"
     transform="translate(158.2255,-316.5701)">
    <rect
       x="-22.102163"
       y="542.73474"
       width="588.98798"
       height="105.21996"
       rx="0"
       style="font-style:normal;font-variant:normal;font-weight:normal;font-stretch:normal;letter-spacing:normal;word-spacing:normal;text-anchor:start;fill:#87cfff;stroke:#000000;stroke-width:6.01139355;stroke-linecap:butt;stroke-linejoin:miter;stroke-miterlimit:10.43299961;stroke-opacity:1;stroke-dasharray:none;stroke-dashoffset:0"
       id="rect10-8" />
    <rect
       x="136.12421"
       y="543.90826"
       width="289.97202"
       height="104.02919"
       rx="0"
       style="font-style:normal;font-variant:normal;font-weight:normal;font-stretch:normal;letter-spacing:normal;word-spacing:normal;text-anchor:start;opacity:0.97000002;fill:#b3b3b3;stroke:#000000;stroke-width:4.19399977;stroke-linecap:butt;stroke-linejoin:miter;stroke-miterlimit:10.43299961;stroke-opacity:1;stroke-dasharray:none;stroke-dashoffset:0;display:inline"
       id="rect10-7-5" />
    <rect
       x="160.27524"
       y="543.89105"
       width="244.91951"
       height="103.53075"
       rx="0"
       style="font-style:normal;font-variant:normal;font-weight:normal;font-stretch:normal;letter-spacing:normal;word-spacing:normal;text-anchor:start;opacity:0.98999999;fill:#008000;stroke:#000000;stroke-width:3.61947703;stroke-linecap:butt;stroke-linejoin:miter;stroke-miterlimit:10.43299961;stroke-opacity:1;stroke-dasharray:none;stroke-dashoffset:0;display:inline"
       id="rect12-7"
       ry="0.21191224" />
    <rect
       x="181.40393"
       y="544.03815"
       width="202.26762"
       height="103.59814"
       rx="0"
       style="font-style:normal;font-variant:normal;font-weight:normal;font-stretch:normal;letter-spacing:normal;word-spacing:normal;text-anchor:start;opacity:0.98999999;fill:#803300;stroke:#000000;stroke-width:3.29032326;stroke-linecap:butt;stroke-linejoin:miter;stroke-miterlimit:10.43299961;stroke-opacity:1;stroke-dasharray:none;stroke-dashoffset:0;display:inline"
       id="rect12-4-9"
       ry="0.21205091" />
    <path
       style="font-style:normal;font-variant:normal;font-weight:normal;font-stretch:normal;letter-spacing:normal;word-spacing:normal;text-anchor:start;fill:none;stroke:#000000;stroke-width:3.76235151;stroke-linecap:butt;stroke-linejoin:miter;stroke-miterlimit:4;stroke-opacity:1;stroke-dasharray:none;stroke-dashoffset:0"
       d="m 292.21903,675.33956 147.28449,0"
       id="path4212"
       inkscape:connector-curvature="0" />
    <path
       style="font-style:normal;font-variant:normal;font-weight:normal;font-stretch:normal;letter-spacing:normal;word-spacing:normal;text-anchor:start;opacity:0.98999999;fill:#000000;stroke:#000000;stroke-width:5.82498074;stroke-linecap:butt;stroke-linejoin:miter;stroke-miterlimit:4;stroke-opacity:1;stroke-dasharray:none;stroke-dashoffset:0"
       d="m 445.40555,681.49297 c 11.14652,-5.92437 14.6963,-7.86527 14.56678,-7.96448 -0.59637,-0.45735 -28.34694,-14.1369 -29.32316,-14.45502 -0.16044,-0.0507 -0.19048,2.32479 -0.19048,15.10305 0,8.34084 0.0439,15.16166 0.10474,15.15738 0.0587,-0.004 6.73655,-3.53263 14.84247,-7.84093 z"
       id="path4027-9-09"
       inkscape:connector-curvature="0" />
    <path
       style="font-style:normal;font-variant:normal;font-weight:normal;font-stretch:normal;letter-spacing:normal;word-spacing:normal;text-anchor:start;fill:none;stroke:#000000;stroke-width:10.5881424;stroke-linecap:butt;stroke-linejoin:miter;stroke-miterlimit:4;stroke-opacity:1;stroke-dasharray:none;stroke-dashoffset:0"
       d="m 295.39319,684.43011 0,-19.67492"
       id="path4212-9"
       inkscape:connector-curvature="0" />
    <g
       style="font-style:normal;font-variant:normal;font-weight:normal;font-stretch:normal;letter-spacing:normal;word-spacing:normal;text-anchor:start;fill:none;stroke:#000000;stroke-linecap:butt;stroke-linejoin:miter;stroke-miterlimit:10.43299961;stroke-opacity:1;stroke-dasharray:none;stroke-dashoffset:0"
       transform="matrix(4.3957474,0,0,4.3418893,-555.81179,137.75933)"
       ns0:text="$r$"
       ns0:preamble=""
       id="g10609">
      <defs
         id="defs10611">
        <g
           id="g10613">
          <symbol
             style="overflow:visible"
             overflow="visible"
             id="textext-84286ff9-0">
            <path
               inkscape:connector-curvature="0"
               style="stroke:none"
               d=""
               id="path10616" />
          </symbol>
          <symbol
             style="overflow:visible"
             overflow="visible"
             id="textext-84286ff9-1">
            <path
               inkscape:connector-curvature="0"
               style="stroke:none"
               d="m 0.875,-0.59375 c -0.03125,0.15625 -0.09375,0.390625 -0.09375,0.4375 0,0.171875 0.140625,0.265625 0.296875,0.265625 0.125,0 0.296875,-0.078125 0.375,-0.28125 C 1.46875,-0.203125 1.796875,-1.5625 1.84375,-1.75 c 0.078125,-0.328125 0.265625,-1.015625 0.3125,-1.296875 0.046875,-0.125 0.328125,-0.59375 0.5625,-0.8125 0.078125,-0.0625 0.375,-0.328125 0.796875,-0.328125 0.265625,0 0.40625,0.125 0.421875,0.125 -0.296875,0.046875 -0.515625,0.28125 -0.515625,0.546875 0,0.15625 0.109375,0.34375 0.375,0.34375 0.265625,0 0.546875,-0.234375 0.546875,-0.59375 0,-0.34375 -0.3125,-0.640625 -0.828125,-0.640625 C 2.875,-4.40625 2.4375,-3.921875 2.25,-3.640625 2.15625,-4.09375 1.796875,-4.40625 1.328125,-4.40625 0.875,-4.40625 0.6875,-4.015625 0.59375,-3.84375 0.421875,-3.5 0.296875,-2.90625 0.296875,-2.875 c 0,0.109375 0.09375,0.109375 0.109375,0.109375 0.109375,0 0.109375,-0.015625 0.171875,-0.234375 0.171875,-0.703125 0.375,-1.1875 0.734375,-1.1875 0.15625,0 0.296875,0.078125 0.296875,0.453125 0,0.21875 -0.03125,0.328125 -0.15625,0.84375 z m 0,0"
               id="path10619" />
          </symbol>
        </g>
      </defs>
      <g
         id="textext-84286ff9-2">
        <g
           style="fill:#000000;fill-opacity:1"
           id="g10622">
          <use
             height="758.41699"
             width="1363.7722"
             xlink:href="#textext-84286ff9-1"
             x="223.43201"
             y="134.765"
             id="use10624" />
        </g>
      </g>
    </g>
    <g
       style="font-style:normal;font-variant:normal;font-weight:normal;font-stretch:normal;letter-spacing:normal;word-spacing:normal;text-anchor:start;fill:none;stroke:#000000;stroke-linecap:butt;stroke-linejoin:miter;stroke-miterlimit:10.43299961;stroke-opacity:1;stroke-dasharray:none;stroke-dashoffset:0"
       id="g5954"
       transform="matrix(6.0864929,0,0,-5.9579413,-645.12071,4435.8625)"
       xml:space="preserve"
       stroke-miterlimit="10.433"
       font-style="normal"
       font-variant="normal"
       font-weight="normal"
       font-stretch="normal"
       font-size-adjust="none"
       letter-spacing="normal"
       word-spacing="normal"
       ns0:text="$T_{r},h$"
       ns0:preamble=""><path
         style="fill:#000000;stroke-width:0"
         inkscape:connector-curvature="0"
         d="m 227.68,663.27 0.01,0.02 0,0.02 0.01,0.03 0.01,0.02 0,0.02 0.01,0.02 0,0.02 0.01,0.02 0,0.01 0.01,0.02 0.01,0.01 0,0.02 0.01,0.01 0,0.01 0.01,0.01 0.01,0.01 0,0.01 0.01,0.01 0.01,0.01 0,0.01 0.01,0 0.01,0.01 0,0.01 0.01,0 0.01,0.01 0.01,0 0.01,0.01 0.01,0 0.01,0 0.01,0.01 0.01,0 0.01,0 c 0.09,0.02 0.42,0.02 0.63,0.02 1,0 1.45,-0.04 1.45,-0.81 0,-0.15 -0.04,-0.54 -0.08,-0.8 -0.01,-0.04 -0.03,-0.16 -0.03,-0.19 0,-0.06 0.03,-0.13 0.12,-0.13 0.11,0 0.13,0.08 0.15,0.23 l 0.27,1.73 c 0.01,0.04 0.02,0.14 0.02,0.17 0,0.11 -0.1,0.11 -0.27,0.11 h -5.52 c -0.24,0 -0.25,-0.01 -0.32,-0.2 l -0.6,-1.75 c -0.01,-0.02 -0.06,-0.16 -0.06,-0.18 0,-0.05 0.05,-0.11 0.12,-0.11 0.1,0 0.11,0.06 0.17,0.21 0.54,1.54 0.8,1.72 2.27,1.72 h 0.39 c 0.27,0 0.27,-0.04 0.27,-0.12 0,-0.06 -0.03,-0.18 -0.04,-0.21 l -1.33,-5.3 c -0.09,-0.37 -0.12,-0.48 -1.18,-0.48 -0.36,0 -0.42,0 -0.42,-0.19 0,-0.12 0.11,-0.12 0.17,-0.12 0.27,0 0.55,0.03 0.81,0.03 0.28,0 0.57,0.01 0.85,0.01 0.28,0 0.56,-0.01 0.83,-0.01 0.28,0 0.58,-0.03 0.86,-0.03 0.1,0 0.22,0 0.22,0.2 0,0.11 -0.08,0.11 -0.34,0.11 -0.25,0 -0.38,0 -0.64,0.02 -0.28,0.03 -0.36,0.06 -0.36,0.22 0,0.01 0,0.06 0.04,0.21 z"
         id="path5956" /><path
         style="fill:#000000;stroke-width:0"
         inkscape:connector-curvature="0"
         d="m 230.89,657.15 0,0 0,0 0,0.01 0,0 0.01,0.01 0,0 0,0.01 0,0.01 0,0 0,0.01 0.01,0.01 0,0.01 0,0.01 0,0.01 0.01,0.03 0.01,0.02 0,0.03 0.01,0.03 0.01,0.03 0.01,0.03 0,0.03 0.02,0.06 0.01,0.06 0.01,0.03 0.01,0.03 0.01,0.03 0.01,0.03 0,0.02 0.01,0.03 0,0.02 0.01,0.01 0,0.01 0,0.01 0.01,0.01 0,0.01 0,0.01 0,0.01 0,0 0.01,0.01 0,0 0,0.01 0,0 0,0.01 0,0 c 0.02,0.05 0.22,0.4 0.44,0.57 0.08,0.05 0.26,0.19 0.56,0.19 0.07,0 0.25,0 0.39,-0.09 -0.22,-0.07 -0.31,-0.26 -0.31,-0.39 0,-0.15 0.12,-0.25 0.28,-0.25 0.16,0 0.39,0.13 0.39,0.42 0,0.36 -0.38,0.51 -0.74,0.51 -0.36,0 -0.67,-0.15 -0.98,-0.5 -0.13,0.43 -0.55,0.5 -0.72,0.5 -0.26,0 -0.43,-0.16 -0.54,-0.36 -0.16,-0.27 -0.26,-0.67 -0.26,-0.71 0,-0.09 0.1,-0.09 0.12,-0.09 0.1,0 0.1,0.02 0.15,0.21 0.11,0.43 0.24,0.75 0.51,0.75 0.18,0 0.23,-0.15 0.23,-0.34 0,-0.13 -0.06,-0.39 -0.11,-0.57 -0.05,-0.19 -0.12,-0.48 -0.15,-0.63 l -0.23,-0.89 c -0.02,-0.09 -0.07,-0.27 -0.07,-0.29 0,-0.15 0.13,-0.22 0.24,-0.22 0.11,0 0.24,0.06 0.3,0.2 0.01,0.04 0.09,0.35 0.13,0.53 z"
         id="path5958" /><path
         style="fill:#000000;stroke-width:0"
         inkscape:connector-curvature="0"
         d="m 235.69,657.24 0,0.07 -0.01,0.05 0,0.06 -0.01,0.06 0,0.05 -0.01,0.05 -0.01,0.06 -0.01,0.04 -0.01,0.05 -0.01,0.05 -0.02,0.04 -0.01,0.04 -0.02,0.04 -0.02,0.04 -0.02,0.04 -0.02,0.03 -0.02,0.04 -0.02,0.03 -0.02,0.02 -0.03,0.03 -0.02,0.03 -0.03,0.02 -0.03,0.02 -0.03,0.02 -0.03,0.01 -0.03,0.02 -0.03,0.01 -0.03,0.01 -0.04,0.01 -0.03,0 -0.04,0.01 -0.03,0 c -0.33,0 -0.53,-0.25 -0.53,-0.53 0,-0.27 0.2,-0.53 0.53,-0.53 0.12,0 0.25,0.05 0.35,0.13 0.03,0.02 0.04,0.03 0.05,0.03 0.01,0 0.02,-0.01 0.02,-0.15 0,-0.73 -0.35,-1.33 -0.68,-1.65 -0.11,-0.11 -0.11,-0.13 -0.11,-0.16 0,-0.07 0.05,-0.11 0.1,-0.11 0.11,0 0.91,0.76 0.91,1.92 z"
         id="path5960" /><path
         style="fill:#000000;stroke-width:0"
         inkscape:connector-curvature="0"
         d="m 240.95,664.02 0,0 0,0 0,0 0,0.01 0,0 0,0 0,0 0,0.01 0,0 0,0.01 0,0 0,0 0,0.01 -0.01,0 0,0.01 0,0 0,0.01 -0.01,0 0,0.01 0,0 -0.01,0.01 0,0 0,0 -0.01,0 0,0.01 0,0 -0.01,0 0,0 0,0 -0.01,0.01 0,0 0,0 -0.01,0 0,0 -0.01,0 0,0 0,0 -0.01,0.01 0,0 -0.01,0 0,0 -0.01,0 -0.01,0 0,0 -0.01,0 c -0.22,0 -0.95,-0.08 -1.21,-0.1 -0.08,-0.01 -0.19,-0.02 -0.19,-0.2 0,-0.12 0.09,-0.12 0.24,-0.12 0.48,0 0.5,-0.07 0.5,-0.17 l -0.03,-0.2 -1.45,-5.72 c -0.03,-0.14 -0.03,-0.16 -0.03,-0.22 0,-0.23 0.19,-0.27 0.28,-0.27 0.16,0 0.32,0.11 0.37,0.25 l 0.19,0.76 0.22,0.89 c 0.06,0.22 0.12,0.44 0.17,0.67 0.02,0.06 0.1,0.39 0.11,0.45 0.03,0.08 0.34,0.64 0.67,0.91 0.22,0.16 0.53,0.35 0.96,0.35 0.43,0 0.54,-0.34 0.54,-0.7 0,-0.54 -0.38,-1.62 -0.62,-2.22 -0.08,-0.23 -0.13,-0.35 -0.13,-0.55 0,-0.47 0.35,-0.81 0.82,-0.81 0.93,0 1.3,1.45 1.3,1.53 0,0.1 -0.09,0.1 -0.12,0.1 -0.1,0 -0.1,-0.04 -0.15,-0.18 -0.15,-0.53 -0.47,-1.24 -1.01,-1.24 -0.17,0 -0.24,0.1 -0.24,0.33 0,0.25 0.09,0.49 0.18,0.71 0.16,0.42 0.6,1.61 0.6,2.18 0,0.65 -0.39,1.07 -1.14,1.07 -0.63,0 -1.11,-0.31 -1.47,-0.77 z"
         id="path5962" /></g>    <path
       style="font-style:normal;font-variant:normal;font-weight:normal;font-stretch:normal;letter-spacing:normal;word-spacing:normal;text-anchor:start;fill:#000000;stroke:#000000;stroke-width:0;stroke-linecap:butt;stroke-linejoin:miter;stroke-miterlimit:10.43299961;stroke-opacity:1;stroke-dasharray:none;stroke-dashoffset:0"
       inkscape:connector-curvature="0"
       d="m 1713.637,775.49061 0,0.0591 -0.076,0.11837 0,0.0594 0,0.11838 -0.076,0.17772 -0.076,0.17772 -0.076,0.17771 0,0.23688 -0.076,0.17772 -0.076,0.1777 0,0.0594 -0.076,0.11838 0,0.0594 0,0.11837 0,0.0594 -0.076,0.0594 0,0.11837 0,0.0591 0,0.0594 -0.076,0.0591 0,0.0594 0,0.0594 0,0.0594 0,0 0,0.0594 0,0.0594 c 0,1.03032 0.8372,1.57509 1.7357,1.57509 0.7198,0 1.7356,-0.48555 2.2155,-1.63728 0.1271,-0.23686 2.0981,-8.42362 2.3354,-9.51466 0.4773,-2.00147 1.557,-6.24188 1.9167,-7.87797 0.2297,-0.72834 1.9168,-3.57571 3.3531,-4.90863 0.4772,-0.42339 2.2155,-2.00147 4.7305,-2.00147 1.5569,0 2.4555,0.72834 2.5142,0.72834 -1.7969,0.30497 -3.054,1.75869 -3.054,3.33292 0,0.96816 0.5999,2.1199 2.2154,2.1199 1.6182,0 3.2937,-1.39452 3.2937,-3.57541 0,-2.11989 -1.9169,-3.93928 -4.9699,-3.93928 -3.8322,0 -6.4668,2.96934 -7.6046,4.66615 -0.4772,-2.72686 -2.6348,-4.66615 -5.4489,-4.66615 -2.6945,0 -3.832,2.36565 -4.3708,3.45431 -1.0797,2.0607 -1.8555,5.63609 -1.8555,5.81729 0,0.60695 0.5997,0.60695 0.7197,0.60695 0.5999,0 0.6585,-0.0594 1.0183,-1.3353 1.0184,-4.30256 2.2155,-7.2115 4.3714,-7.2115 0.957,0 1.7968,0.48555 1.7968,2.78607 0,1.27016 -0.1787,1.94224 -0.9572,5.0303 z"
       id="path10383" />
    <path
       style="font-style:normal;font-variant:normal;font-weight:normal;font-stretch:normal;letter-spacing:normal;word-spacing:normal;text-anchor:start;fill:none;stroke:#000000;stroke-width:3.13935423;stroke-linecap:butt;stroke-linejoin:miter;stroke-miterlimit:0;stroke-opacity:1;stroke-dasharray:none;stroke-dashoffset:0;marker-start:url(#Arrow1Lstart);marker-mid:none;marker-end:none"
       d="m 1221.2381,389.70624 0,333.00126"
       id="path9767"
       inkscape:connector-curvature="0" />
    <path
       style="font-style:normal;font-variant:normal;font-weight:normal;font-stretch:normal;letter-spacing:normal;word-spacing:normal;text-anchor:start;fill:none;stroke:#000000;stroke-width:3.63932848;stroke-linecap:butt;stroke-linejoin:miter;stroke-miterlimit:0;stroke-opacity:1;stroke-dasharray:none;stroke-dashoffset:0;marker-mid:none;marker-end:url(#Arrow1Lend)"
       d="m 1219.5771,720.9903 502.7488,0"
       id="path9767-8"
       inkscape:connector-curvature="0" />
    <rect
       style="font-style:normal;font-variant:normal;font-weight:normal;font-stretch:normal;letter-spacing:normal;word-spacing:normal;text-anchor:start;fill:#aa4400;fill-opacity:0.54901961;stroke:#000000;stroke-width:3.88383508;stroke-linecap:butt;stroke-linejoin:miter;stroke-miterlimit:4;stroke-opacity:1;stroke-dasharray:none;stroke-dashoffset:0"
       id="rect9971"
       width="125.28108"
       height="254.23796"
       x="1229.7181"
       y="455.42661"
       ry="7.863029" />
    <rect
       style="font-style:normal;font-variant:normal;font-weight:normal;font-stretch:normal;letter-spacing:normal;word-spacing:normal;text-anchor:start;fill:#800080;fill-opacity:0.54901961;stroke:#000000;stroke-width:3.10102439;stroke-linecap:butt;stroke-linejoin:miter;stroke-miterlimit:4;stroke-opacity:1;stroke-dasharray:none;stroke-dashoffset:0"
       id="rect9971-0"
       width="92.59491"
       height="219.29448"
       x="1364.4821"
       y="490.2699"
       ry="6.7823033" />
    <rect
       style="font-style:normal;font-variant:normal;font-weight:normal;font-stretch:normal;letter-spacing:normal;word-spacing:normal;text-anchor:start;fill:#d40000;fill-opacity:0.54901961;stroke:#000000;stroke-width:2.70430613;stroke-linecap:butt;stroke-linejoin:miter;stroke-miterlimit:4;stroke-opacity:1;stroke-dasharray:none;stroke-dashoffset:0"
       id="rect9971-0-5"
       width="89.723717"
       height="172.11104"
       x="1465.2231"
       y="538.85199"
       ry="5.3230224" />
    <rect
       style="font-style:normal;font-variant:normal;font-weight:normal;font-stretch:normal;letter-spacing:normal;word-spacing:normal;text-anchor:start;fill:#008000;fill-opacity:0.54901961;stroke:#000000;stroke-width:1.74453652;stroke-linecap:butt;stroke-linejoin:miter;stroke-miterlimit:4;stroke-opacity:1;stroke-dasharray:none;stroke-dashoffset:0"
       id="rect9971-0-5-0"
       width="67.409447"
       height="95.333054"
       x="1561.0938"
       y="616.65692"
       ry="2.9484446" />
    <path
       style="font-style:normal;font-variant:normal;font-weight:normal;font-stretch:normal;letter-spacing:normal;word-spacing:normal;text-anchor:start;fill:none;stroke:#000000;stroke-width:3.10962963;stroke-linecap:round;stroke-linejoin:miter;stroke-miterlimit:0.2;stroke-opacity:1;stroke-dasharray:6.21925988, 3.10962994;stroke-dashoffset:0"
       d="m 1223.6737,441.91141 c 0,0 355.6397,28.80546 404.1361,268.5684"
       id="path9967"
       inkscape:connector-curvature="0" />
    <polyline
       points="1842,4488 1844,4487 1850,4485 1861,4481 1877,4475 1901,4467 1930,4456 1968,4444 2013,4428 2065,4409 2122,4389 2185,4368 2251,4345 2320,4322 2390,4298 2460,4274 2530,4250 2598,4227 2664,4206 2727,4185 2787,4166 2844,4149 2896,4133 2944,4118 2990,4106 3032,4094 3069,4085 3103,4076 3134,4069 3162,4065 3186,4060 3208,4058 3226,4057 3243,4057 3256,4059 3268,4062 3282,4071 3291,4082 3295,4098 3293,4117 3287,4138 3277,4162 3265,4188 3249,4216 3232,4244 3214,4274 3196,4303 3181,4332 3165,4360 3153,4385 3145,4409 3140,4429 3140,4447 3145,4461 3155,4473 3173,4480 3185,4482 3198,4483 3214,4483 3233,4482 3254,4479 3278,4475 3306,4470 3335,4464 3367,4455 3404,4446 3443,4435 3486,4423 3532,4408 3583,4393 3636,4376 3693,4358 3754,4338 3817,4317 3882,4295 3950,4271 4019,4247 4090,4223 4159,4199 4228,4175 4295,4152 4359,4129 4417,4108 4472,4089 4520,4072 4561,4056 4596,4045 4624,4034 4645,4027 4660,4022 4669,4018 4675,4016 4677,4015 "
       style="font-style:normal;font-variant:normal;font-weight:normal;font-stretch:normal;letter-spacing:normal;word-spacing:normal;text-anchor:start;fill:none;stroke:#000000;stroke-width:57.83802795;stroke-linecap:butt;stroke-linejoin:bevel;stroke-miterlimit:4;stroke-opacity:1;stroke-dasharray:none;stroke-dashoffset:0"
       id="polyline70-8-3"
       transform="matrix(0,-0.04908708,-0.08056783,0,549.36051,840.48956)" />
    <polyline
       points="1842,4488 1844,4487 1850,4485 1861,4481 1877,4475 1901,4467 1930,4456 1968,4444 2013,4428 2065,4409 2122,4389 2185,4368 2251,4345 2320,4322 2390,4298 2460,4274 2530,4250 2598,4227 2664,4206 2727,4185 2787,4166 2844,4149 2896,4133 2944,4118 2990,4106 3032,4094 3069,4085 3103,4076 3134,4069 3162,4065 3186,4060 3208,4058 3226,4057 3243,4057 3256,4059 3268,4062 3282,4071 3291,4082 3295,4098 3293,4117 3287,4138 3277,4162 3265,4188 3249,4216 3232,4244 3214,4274 3196,4303 3181,4332 3165,4360 3153,4385 3145,4409 3140,4429 3140,4447 3145,4461 3155,4473 3173,4480 3185,4482 3198,4483 3214,4483 3233,4482 3254,4479 3278,4475 3306,4470 3335,4464 3367,4455 3404,4446 3443,4435 3486,4423 3532,4408 3583,4393 3636,4376 3693,4358 3754,4338 3817,4317 3882,4295 3950,4271 4019,4247 4090,4223 4159,4199 4228,4175 4295,4152 4359,4129 4417,4108 4472,4089 4520,4072 4561,4056 4596,4045 4624,4034 4645,4027 4660,4022 4669,4018 4675,4016 4677,4015 "
       style="font-style:normal;font-variant:normal;font-weight:normal;font-stretch:normal;letter-spacing:normal;word-spacing:normal;text-anchor:start;fill:none;stroke:#000000;stroke-width:57.83802795;stroke-linecap:butt;stroke-linejoin:bevel;stroke-miterlimit:4;stroke-opacity:1;stroke-dasharray:none;stroke-dashoffset:0"
       id="polyline70-8-3-8"
       transform="matrix(-0.06545151,0,0,-0.12598694,833.3655,1091.1606)" />
    <path
       style="font-style:normal;font-variant:normal;font-weight:normal;font-stretch:normal;letter-spacing:normal;word-spacing:normal;text-anchor:start;fill:none;stroke:#000000;stroke-width:2.35235572;stroke-linecap:butt;stroke-linejoin:miter;stroke-miterlimit:0;stroke-opacity:1;stroke-dasharray:none;stroke-dashoffset:0;marker-mid:none;marker-end:url(#Arrow1Lend)"
       d="m 785.03191,620.01689 367.99749,0"
       id="path9767-8-5"
       inkscape:connector-curvature="0" />
    <g
       style="font-style:normal;font-variant:normal;font-weight:normal;font-stretch:normal;letter-spacing:normal;word-spacing:normal;text-anchor:start;fill:none;stroke:#000000;stroke-linecap:butt;stroke-linejoin:miter;stroke-miterlimit:10.43299961;stroke-opacity:1;stroke-dasharray:none;stroke-dashoffset:0"
       id="content"
       transform="matrix(6,0,0,-6,-1501.0255,4304.0304)"
       xml:space="preserve"
       stroke-miterlimit="10.433"
       font-style="normal"
       font-variant="normal"
       font-weight="normal"
       font-stretch="normal"
       font-size-adjust="none"
       letter-spacing="normal"
       word-spacing="normal"
       ns0:text="Modelo de la pastilla en RELAP"
       ns0:preamble=""><path
         style="fill:#000000;stroke-width:0"
         inkscape:connector-curvature="0"
         d="m 225.83,663.8 0,0.01 -0.01,0.01 0,0.01 -0.01,0.01 0,0.02 -0.01,0.01 -0.01,0.02 -0.01,0.01 0,0.02 -0.01,0.01 -0.01,0.01 0,0.01 -0.01,0.01 -0.01,0.01 -0.01,0 -0.01,0.01 0,0.01 -0.01,0 -0.01,0.01 -0.01,0 -0.01,0.01 -0.01,0 -0.01,0 -0.01,0 -0.02,0.01 -0.01,0 -0.01,0 -0.02,0 -0.01,0 -0.02,0 -0.02,0 -0.02,0 -0.02,0 -0.02,0 h -1.68 v -0.31 h 0.24 c 0.76,0 0.78,-0.11 0.78,-0.47 v -4.96 c 0,-0.27 0,-0.74 -1.02,-0.74 v -0.31 c 0.35,0.01 0.84,0.04 1.16,0.04 0.33,0 0.82,-0.03 1.17,-0.04 v 0.31 c -1.03,0 -1.03,0.47 -1.03,0.74 v 5.35 h 0.01 l 2.4,-6.18 c 0.05,-0.13 0.1,-0.22 0.2,-0.22 0.11,0 0.14,0.08 0.18,0.19 l 2.45,6.29 h 0.01 v -5.7 c 0,-0.36 -0.02,-0.47 -0.79,-0.47 h -0.24 v -0.31 c 0.37,0.04 1.05,0.04 1.44,0.04 0.38,0 1.05,0 1.42,-0.04 v 0.31 h -0.24 c -0.77,0 -0.79,0.11 -0.79,0.47 v 5.23 c 0,0.36 0.02,0.47 0.79,0.47 h 0.24 v 0.31 h -1.68 c -0.26,0 -0.26,-0.01 -0.33,-0.19 l -2.18,-5.59 z"
         id="path3599" /><path
         style="fill:#000000;stroke-width:0"
         inkscape:connector-curvature="0"
         d="m 237.25,659.36 0,0.12 -0.01,0.12 -0.01,0.11 -0.02,0.12 -0.03,0.11 -0.03,0.11 -0.03,0.11 -0.04,0.1 -0.05,0.1 -0.05,0.1 -0.05,0.1 -0.06,0.09 -0.06,0.1 -0.06,0.08 -0.07,0.09 -0.08,0.08 -0.07,0.08 -0.08,0.07 -0.09,0.07 -0.08,0.06 -0.09,0.07 -0.09,0.05 -0.1,0.05 -0.1,0.05 -0.1,0.04 -0.1,0.04 -0.1,0.03 -0.11,0.03 -0.11,0.02 -0.1,0.01 -0.12,0.01 -0.11,0 -0.01,-0.21 c 0.44,0 0.87,-0.22 1.13,-0.65 0.26,-0.43 0.26,-1 0.26,-1.38 0,-0.36 0,-0.89 -0.22,-1.33 -0.22,-0.45 -0.66,-0.74 -1.16,-0.74 h 0 c -0.43,0 -0.86,0.21 -1.13,0.67 -0.25,0.44 -0.25,1.04 -0.25,1.4 0,0.39 0,0.92 0.24,1.36 0.27,0.46 0.73,0.67 1.13,0.67 l 0.01,0.21 c -1.24,0 -2.21,-1.08 -2.21,-2.32 0,-1.28 1.04,-2.23 2.2,-2.23 1.21,0 2.21,0.97 2.21,2.23 z"
         id="path3601" /><path
         style="fill:#000000;stroke-width:0"
         inkscape:connector-curvature="0"
         d="m 241.61,657.78 v -0.65 l 1.46,0.1 v 0.31 c -0.7,0 -0.78,0.07 -0.78,0.56 v 6.03 l -1.43,-0.11 v -0.31 c 0.7,0 0.78,-0.07 0.78,-0.55 v -2.15 c -0.29,0.36 -0.72,0.62 -1.26,0.62 l 0.04,-0.22 c 0.35,0 0.77,-0.15 1.08,-0.6 0.11,-0.17 0.11,-0.19 0.11,-0.37 h 0 v -2.03 c 0,-0.18 0,-0.2 -0.11,-0.37 -0.3,-0.48 -0.75,-0.7 -1.18,-0.7 -0.45,0 -0.8,0.26 -1.04,0.64 -0.26,0.41 -0.29,0.97 -0.29,1.38 0,0.37 0.02,0.96 0.31,1.41 0.21,0.31 0.58,0.64 1.12,0.64 l -0.04,0.22 c -1.17,0 -2.22,-0.98 -2.22,-2.26 0,-1.26 0.98,-2.24 2.11,-2.24 0.64,0 1.09,0.33 1.34,0.65 z"
         id="path3603" /><path
         style="fill:#000000;stroke-width:0"
         inkscape:connector-curvature="0"
         d="m 244.46,659.53 0.02,0.21 c 0.05,1.48 0.89,1.73 1.23,1.73 1.02,0 1.12,-1.34 1.12,-1.73 h -2.35 l -0.02,-0.21 h 2.78 c 0.22,0 0.25,0 0.25,0.21 0,0.98 -0.54,1.94 -1.78,1.94 -1.16,0 -2.07,-1.02 -2.07,-2.26 0,-1.33 1.04,-2.29 2.19,-2.29 1.21,0 1.66,1.1 1.66,1.29 0,0.1 -0.08,0.12 -0.13,0.12 -0.09,0 -0.11,-0.06 -0.13,-0.14 -0.35,-1.03 -1.24,-1.03 -1.34,-1.03 -0.5,0 -0.9,0.3 -1.13,0.67 -0.3,0.48 -0.3,1.13 -0.3,1.49 z"
         id="path3605" /><path
         style="fill:#000000;stroke-width:0"
         inkscape:connector-curvature="0"
         d="m 249.55,664.13 -1.43,-0.11 v -0.31 c 0.69,0 0.77,-0.07 0.77,-0.55 v -5.17 c 0,-0.45 -0.11,-0.45 -0.77,-0.45 v -0.31 c 0.32,0.01 0.85,0.04 1.1,0.04 0.25,0 0.74,-0.03 1.1,-0.04 v 0.31 c -0.66,0 -0.77,0 -0.77,0.45 z"
         id="path3607" /><path
         style="fill:#000000;stroke-width:0"
         inkscape:connector-curvature="0"
         d="m 255.24,659.36 0,0.12 -0.01,0.12 -0.01,0.11 -0.02,0.12 -0.03,0.11 -0.03,0.11 -0.03,0.11 -0.04,0.1 -0.05,0.1 -0.05,0.1 -0.05,0.1 -0.06,0.09 -0.06,0.1 -0.06,0.08 -0.07,0.09 -0.08,0.08 -0.07,0.08 -0.08,0.07 -0.09,0.07 -0.08,0.06 -0.09,0.07 -0.09,0.05 -0.1,0.05 -0.1,0.05 -0.1,0.04 -0.1,0.04 -0.1,0.03 -0.11,0.03 -0.11,0.02 -0.1,0.01 -0.12,0.01 -0.11,0 -0.01,-0.21 c 0.44,0 0.87,-0.22 1.13,-0.65 0.25,-0.43 0.25,-1 0.25,-1.38 0,-0.36 0,-0.89 -0.21,-1.33 -0.22,-0.45 -0.66,-0.74 -1.16,-0.74 h 0 c -0.42,0 -0.86,0.21 -1.13,0.67 -0.25,0.44 -0.25,1.04 -0.25,1.4 0,0.39 0,0.92 0.24,1.36 0.27,0.46 0.73,0.67 1.13,0.67 l 0.01,0.21 c -1.24,0 -2.21,-1.08 -2.21,-2.32 0,-1.28 1.04,-2.23 2.2,-2.23 1.21,0 2.21,0.97 2.21,2.23 z"
         id="path3609" /><path
         style="fill:#000000;stroke-width:0"
         inkscape:connector-curvature="0"
         d="m 262.64,657.78 v -0.65 l 1.46,0.1 v 0.31 c -0.7,0 -0.78,0.07 -0.78,0.56 v 6.03 l -1.43,-0.11 v -0.31 c 0.69,0 0.78,-0.07 0.78,-0.55 v -2.15 c -0.29,0.36 -0.72,0.62 -1.26,0.62 l 0.04,-0.22 c 0.35,0 0.77,-0.15 1.07,-0.6 0.12,-0.17 0.12,-0.19 0.12,-0.37 h 0 v -2.03 c 0,-0.18 0,-0.2 -0.12,-0.37 -0.29,-0.48 -0.74,-0.7 -1.17,-0.7 -0.45,0 -0.8,0.26 -1.04,0.64 -0.26,0.41 -0.29,0.97 -0.29,1.38 0,0.37 0.02,0.96 0.31,1.41 0.21,0.31 0.58,0.64 1.12,0.64 l -0.04,0.22 c -1.17,0 -2.22,-0.98 -2.22,-2.26 0,-1.26 0.98,-2.24 2.11,-2.24 0.64,0 1.09,0.33 1.34,0.65 z"
         id="path3611" /><path
         style="fill:#000000;stroke-width:0"
         inkscape:connector-curvature="0"
         d="m 265.49,659.53 0.01,0.21 c 0.06,1.48 0.9,1.73 1.24,1.73 1.02,0 1.12,-1.34 1.12,-1.73 h -2.36 l -0.01,-0.21 h 2.78 c 0.22,0 0.25,0 0.25,0.21 0,0.98 -0.54,1.94 -1.78,1.94 -1.16,0 -2.07,-1.02 -2.07,-2.26 0,-1.33 1.04,-2.29 2.19,-2.29 1.21,0 1.66,1.1 1.66,1.29 0,0.1 -0.08,0.12 -0.13,0.12 -0.09,0 -0.11,-0.06 -0.13,-0.14 -0.35,-1.03 -1.24,-1.03 -1.34,-1.03 -0.5,0 -0.9,0.3 -1.13,0.67 -0.3,0.48 -0.3,1.13 -0.3,1.49 z"
         id="path3613" /><path
         style="fill:#000000;stroke-width:0"
         inkscape:connector-curvature="0"
         d="m 273.89,664.13 -1.43,-0.11 v -0.31 c 0.7,0 0.78,-0.07 0.78,-0.55 v -5.17 c 0,-0.45 -0.11,-0.45 -0.78,-0.45 v -0.31 c 0.33,0.01 0.86,0.04 1.11,0.04 0.25,0 0.73,-0.03 1.1,-0.04 v 0.31 c -0.66,0 -0.78,0 -0.78,0.45 z"
         id="path3615" /><path
         style="fill:#000000;stroke-width:0"
         inkscape:connector-curvature="0"
         d="m 278.21,657.99 0.01,-0.04 0.01,-0.03 0,-0.04 0.01,-0.04 0.01,-0.04 0.01,-0.03 0.01,-0.04 0.02,-0.03 0.01,-0.04 0.02,-0.03 0.02,-0.04 0.01,-0.03 0.02,-0.03 0.03,-0.04 0.02,-0.03 0.02,-0.03 0.03,-0.02 0.02,-0.03 0.03,-0.03 0.03,-0.02 0.03,-0.02 0.03,-0.03 0.03,-0.02 0.04,-0.01 0.03,-0.02 0.04,-0.01 0.04,-0.02 0.03,-0.01 0.04,0 0.05,-0.01 0.04,0 0.04,-0.01 c 0.21,0 0.82,0.14 0.82,0.95 v 0.55 h -0.25 v -0.55 c 0,-0.58 -0.25,-0.64 -0.36,-0.64 -0.33,0 -0.37,0.45 -0.37,0.5 v 1.99 c 0,0.41 0,0.8 -0.36,1.17 -0.39,0.39 -0.88,0.54 -1.36,0.54 -0.81,0 -1.5,-0.46 -1.5,-1.12 0,-0.29 0.2,-0.46 0.46,-0.46 0.27,0 0.45,0.19 0.45,0.45 0,0.12 -0.05,0.45 -0.5,0.46 0.27,0.35 0.75,0.46 1.07,0.46 0.49,0 1.05,-0.39 1.05,-1.27 v -0.37 -0.21 -0.99 c 0,-0.95 -0.71,-1.29 -1.16,-1.29 -0.49,0 -0.89,0.35 -0.89,0.85 0,0.54 0.41,1.37 2.05,1.43 h 0 v 0.21 c -0.5,-0.03 -1.2,-0.06 -1.83,-0.36 -0.74,-0.34 -0.99,-0.85 -0.99,-1.29 0,-0.81 0.97,-1.05 1.59,-1.05 0.66,0 1.12,0.39 1.3,0.86 z"
         id="path3617" /><path
         style="fill:#000000;stroke-width:0"
         inkscape:connector-curvature="0"
         d="m 284.92,660.97 v 0.66 l -1.43,-0.11 v -0.31 c 0.71,0 0.78,-0.06 0.78,-0.5 v -4.65 c 0,-0.44 -0.11,-0.44 -0.78,-0.44 v -0.31 c 0.34,0.01 0.86,0.03 1.11,0.03 0.27,0 0.78,-0.02 1.13,-0.03 v 0.31 c -0.67,0 -0.78,0 -0.78,0.44 v 1.67 0.09 l 0.14,0.13 c -0.14,0.21 -0.14,0.22 -0.14,0.42 h 0 v 2.21 c 0.29,0.51 0.78,0.8 1.28,0.8 0.73,0 1.34,-0.88 1.34,-2 0,-1.2 -0.7,-2.04 -1.43,-2.04 -0.4,0 -0.78,0.2 -1.05,0.61 l -0.14,-0.13 c 0.05,-0.16 0.47,-0.69 1.22,-0.69 1.19,0 2.22,0.97 2.22,2.25 0,1.26 -0.96,2.25 -2.07,2.25 -0.78,0 -1.2,-0.44 -1.4,-0.66 z"
         id="path3619" /><path
         style="fill:#000000;stroke-width:0"
         inkscape:connector-curvature="0"
         d="m 292.06,657.99 0,-0.04 0.01,-0.03 0.01,-0.04 0,-0.04 0.01,-0.04 0.02,-0.03 0.01,-0.04 0.01,-0.03 0.02,-0.04 0.01,-0.03 0.02,-0.04 0.02,-0.03 0.02,-0.03 0.02,-0.04 0.02,-0.03 0.03,-0.03 0.02,-0.02 0.03,-0.03 0.03,-0.03 0.02,-0.02 0.03,-0.02 0.04,-0.03 0.03,-0.02 0.03,-0.01 0.04,-0.02 0.03,-0.01 0.04,-0.02 0.04,-0.01 0.04,0 0.04,-0.01 0.04,0 0.04,-0.01 c 0.21,0 0.82,0.14 0.82,0.95 v 0.55 h -0.25 v -0.55 c 0,-0.58 -0.25,-0.64 -0.36,-0.64 -0.33,0 -0.36,0.45 -0.36,0.5 v 1.99 c 0,0.41 0,0.8 -0.36,1.17 -0.39,0.39 -0.89,0.54 -1.37,0.54 -0.81,0 -1.5,-0.46 -1.5,-1.12 0,-0.29 0.2,-0.46 0.46,-0.46 0.28,0 0.46,0.19 0.46,0.45 0,0.12 -0.05,0.45 -0.51,0.46 0.27,0.35 0.76,0.46 1.07,0.46 0.49,0 1.06,-0.39 1.06,-1.27 v -0.37 -0.21 -0.99 c 0,-0.95 -0.72,-1.29 -1.16,-1.29 -0.49,0 -0.9,0.35 -0.9,0.85 0,0.54 0.42,1.37 2.06,1.43 h 0 v 0.21 c -0.51,-0.03 -1.2,-0.06 -1.83,-0.36 -0.75,-0.34 -1,-0.85 -1,-1.29 0,-0.81 0.97,-1.05 1.6,-1.05 0.65,0 1.11,0.39 1.3,0.86 z"
         id="path3621" /><path
         style="fill:#000000;stroke-width:0"
         inkscape:connector-curvature="0"
         d="m 295.8,659.16 0.02,0 0.02,-0.01 0.03,0 0.03,-0.01 0.04,-0.01 0.03,-0.01 0.04,-0.01 0.04,-0.01 0.04,-0.01 0.04,-0.01 0.05,-0.02 0.04,-0.02 0.04,-0.01 0.05,-0.03 0.04,-0.02 0.05,-0.02 0.04,-0.03 0.04,-0.03 0.04,-0.03 0.04,-0.03 0.04,-0.03 0.04,-0.04 0.03,-0.04 0.03,-0.04 0.03,-0.05 0.01,-0.02 0.01,-0.03 0.02,-0.02 0.01,-0.03 0.01,-0.02 0.01,-0.03 0,-0.03 0.01,-0.02 0.01,-0.03 0,-0.03 0.01,-0.03 0,-0.04 0,-0.03 0,-0.03 c 0,-0.51 -0.35,-0.91 -1.12,-0.91 -0.84,0 -1.2,0.57 -1.39,1.42 -0.03,0.12 -0.04,0.16 -0.14,0.16 -0.13,0 -0.13,-0.07 -0.13,-0.25 v -1.31 c 0,-0.16 0,-0.23 0.12,-0.23 0.04,0 0.05,0.01 0.24,0.19 0.02,0.02 0.02,0.04 0.2,0.23 0.44,-0.41 0.89,-0.42 1.1,-0.42 1.14,0 1.6,0.66 1.6,1.38 0,0.52 -0.3,0.82 -0.42,0.94 -0.33,0.32 -0.72,0.4 -1.13,0.48 -0.56,0.11 -1.23,0.23 -1.23,0.81 0,0.35 0.26,0.76 1.12,0.76 1.09,0 1.14,-0.9 1.16,-1.21 0.01,-0.08 0.1,-0.08 0.12,-0.08 0.13,0 0.13,0.05 0.13,0.23 v 1.01 c 0,0.17 0,0.23 -0.11,0.23 -0.05,0 -0.07,0 -0.2,-0.11 -0.03,-0.04 -0.13,-0.13 -0.17,-0.16 -0.38,0.27 -0.78,0.27 -0.93,0.27 -1.22,0 -1.6,-0.66 -1.6,-1.22 0,-0.34 0.16,-0.62 0.43,-0.84 0.32,-0.26 0.6,-0.32 1.32,-0.46 z"
         id="path3623" /><path
         style="fill:#000000;stroke-width:0"
         inkscape:connector-curvature="0"
         d="m 299.38,661.21 h 1.42 v 0.31 h -1.42 v 1.82 h -0.25 c -0.01,-0.81 -0.31,-1.87 -1.28,-1.91 v -0.22 h 0.84 v -2.74 c 0,-1.23 0.93,-1.34 1.28,-1.34 0.71,0 0.99,0.7 0.99,1.34 v 0.56 h -0.25 v -0.54 c 0,-0.74 -0.3,-1.12 -0.67,-1.12 -0.66,0 -0.66,0.91 -0.66,1.08 z"
         id="path3625" /><path
         style="fill:#000000;stroke-width:0"
         inkscape:connector-curvature="0"
         d="m 303.29,661.63 -1.39,-0.11 v -0.31 c 0.65,0 0.74,-0.06 0.74,-0.55 v -2.67 c 0,-0.45 -0.11,-0.45 -0.78,-0.45 v -0.31 c 0.32,0.01 0.85,0.04 1.09,0.04 0.35,0 0.7,-0.03 1.04,-0.04 v 0.31 c -0.66,0 -0.7,0.05 -0.7,0.44 z"
         id="path3627" /><path
         style="fill:#000000;stroke-width:0"
         inkscape:connector-curvature="0"
         d="m 303.33,663.35 0,0.03 0,0.03 -0.01,0.03 0,0.03 -0.01,0.02 0,0.03 -0.01,0.03 -0.01,0.02 -0.01,0.02 -0.02,0.03 -0.01,0.02 -0.01,0.02 -0.02,0.02 -0.01,0.02 -0.02,0.02 -0.02,0.02 -0.02,0.01 -0.02,0.02 -0.02,0.01 -0.02,0.02 -0.02,0.01 -0.02,0.01 -0.02,0.01 -0.03,0.01 -0.02,0.01 -0.02,0.01 -0.03,0.01 -0.02,0 -0.03,0.01 -0.02,0 -0.03,0 -0.03,0 c -0.3,0 -0.52,-0.27 -0.52,-0.53 0,-0.26 0.22,-0.52 0.52,-0.52 0.28,0 0.53,0.21 0.53,0.52 z"
         id="path3629" /><path
         style="fill:#000000;stroke-width:0"
         inkscape:connector-curvature="0"
         d="m 306.06,664.13 -1.43,-0.11 v -0.31 c 0.69,0 0.77,-0.07 0.77,-0.55 v -5.17 c 0,-0.45 -0.11,-0.45 -0.77,-0.45 v -0.31 c 0.32,0.01 0.85,0.04 1.1,0.04 0.25,0 0.74,-0.03 1.1,-0.04 v 0.31 c -0.66,0 -0.77,0 -0.77,0.45 z"
         id="path3631" /><path
         style="fill:#000000;stroke-width:0"
         inkscape:connector-curvature="0"
         d="m 308.83,664.13 -1.44,-0.11 v -0.31 c 0.7,0 0.78,-0.07 0.78,-0.55 v -5.17 c 0,-0.45 -0.11,-0.45 -0.78,-0.45 v -0.31 c 0.33,0.01 0.86,0.04 1.11,0.04 0.25,0 0.73,-0.03 1.1,-0.04 v 0.31 c -0.66,0 -0.77,0 -0.77,0.45 z"
         id="path3633" /><path
         style="fill:#000000;stroke-width:0"
         inkscape:connector-curvature="0"
         d="m 313.15,657.99 0,-0.04 0.01,-0.03 0,-0.04 0.01,-0.04 0.01,-0.04 0.01,-0.03 0.02,-0.04 0.01,-0.03 0.01,-0.04 0.02,-0.03 0.02,-0.04 0.02,-0.03 0.02,-0.03 0.02,-0.04 0.02,-0.03 0.02,-0.03 0.03,-0.02 0.03,-0.03 0.02,-0.03 0.03,-0.02 0.03,-0.02 0.03,-0.03 0.04,-0.02 0.03,-0.01 0.03,-0.02 0.04,-0.01 0.04,-0.02 0.04,-0.01 0.04,0 0.04,-0.01 0.04,0 0.04,-0.01 c 0.21,0 0.82,0.14 0.82,0.95 v 0.55 h -0.25 v -0.55 c 0,-0.58 -0.25,-0.64 -0.36,-0.64 -0.33,0 -0.37,0.45 -0.37,0.5 v 1.99 c 0,0.41 0,0.8 -0.36,1.17 -0.38,0.39 -0.88,0.54 -1.36,0.54 -0.81,0 -1.5,-0.46 -1.5,-1.12 0,-0.29 0.2,-0.46 0.46,-0.46 0.28,0 0.45,0.19 0.45,0.45 0,0.12 -0.05,0.45 -0.5,0.46 0.27,0.35 0.75,0.46 1.07,0.46 0.49,0 1.06,-0.39 1.06,-1.27 v -0.37 -0.21 -0.99 c 0,-0.95 -0.72,-1.29 -1.17,-1.29 -0.49,0 -0.89,0.35 -0.89,0.85 0,0.54 0.41,1.37 2.06,1.43 h 0 v 0.21 c -0.51,-0.03 -1.21,-0.06 -1.83,-0.36 -0.75,-0.34 -1,-0.85 -1,-1.29 0,-0.81 0.97,-1.05 1.59,-1.05 0.66,0 1.12,0.39 1.31,0.86 z"
         id="path3635" /><path
         style="fill:#000000;stroke-width:0"
         inkscape:connector-curvature="0"
         d="m 319.24,659.53 0.01,0.21 c 0.06,1.48 0.89,1.73 1.23,1.73 1.03,0 1.13,-1.34 1.13,-1.73 h -2.36 l -0.01,-0.21 h 2.77 c 0.22,0 0.25,0 0.25,0.21 0,0.98 -0.54,1.94 -1.78,1.94 -1.15,0 -2.07,-1.02 -2.07,-2.26 0,-1.33 1.05,-2.29 2.19,-2.29 1.21,0 1.66,1.1 1.66,1.29 0,0.1 -0.08,0.12 -0.13,0.12 -0.09,0 -0.11,-0.06 -0.13,-0.14 -0.35,-1.03 -1.24,-1.03 -1.34,-1.03 -0.5,0 -0.9,0.3 -1.12,0.67 -0.3,0.48 -0.3,1.13 -0.3,1.49 z"
         id="path3637" /><path
         style="fill:#000000;stroke-width:0"
         inkscape:connector-curvature="0"
         d="m 323.65,660.65 v -2.66 c 0,-0.45 -0.1,-0.45 -0.77,-0.45 v -0.31 c 0.35,0.01 0.85,0.04 1.12,0.04 0.26,0 0.78,-0.03 1.12,-0.04 v 0.31 c -0.67,0 -0.78,0 -0.78,0.45 v 1.83 c 0,1.03 0.71,1.59 1.34,1.59 0.63,0 0.74,-0.54 0.74,-1.11 v -2.31 c 0,-0.45 -0.11,-0.45 -0.78,-0.45 v -0.31 c 0.35,0.01 0.86,0.04 1.13,0.04 0.26,0 0.77,-0.03 1.11,-0.04 v 0.31 c -0.52,0 -0.76,0 -0.77,0.3 v 1.9 c 0,0.85 0,1.16 -0.31,1.52 -0.14,0.17 -0.47,0.37 -1.05,0.37 -0.72,0 -1.19,-0.43 -1.47,-1.05 v 1.05 l -1.4,-0.11 v -0.31 c 0.69,0 0.77,-0.07 0.77,-0.56 z"
         id="path3639" /><path
         style="fill:#000000;stroke-width:0"
         inkscape:connector-curvature="0"
         d="m 335.74,660.61 0.09,0.03 0.09,0.02 0.09,0.03 0.08,0.03 0.09,0.03 0.08,0.03 0.08,0.04 0.08,0.04 0.08,0.04 0.07,0.04 0.07,0.04 0.07,0.05 0.07,0.04 0.07,0.05 0.06,0.05 0.06,0.05 0.06,0.05 0.05,0.06 0.06,0.05 0.04,0.06 0.05,0.06 0.04,0.06 0.04,0.06 0.03,0.07 0.04,0.06 0.02,0.07 0.03,0.06 0.02,0.07 0.01,0.07 0.01,0.07 0.01,0.07 0,0.07 c 0,0.95 -1.13,1.79 -2.59,1.79 h -3.13 v -0.31 H 332 c 0.77,0 0.79,-0.11 0.79,-0.47 v -5.23 c 0,-0.36 -0.02,-0.47 -0.79,-0.47 h -0.24 v -0.31 c 0.36,0.04 1.07,0.04 1.45,0.04 0.39,0 1.1,0 1.46,-0.04 v 0.31 h -0.24 c -0.77,0 -0.79,0.11 -0.79,0.47 v 2.51 0.22 2.58 c 0,0.22 0,0.34 0.22,0.37 0.1,0.02 0.39,0.02 0.59,0.02 0.89,0 2.01,-0.04 2.01,-1.48 0,-0.68 -0.24,-1.49 -1.72,-1.49 h -1.1 v -0.22 h 1.15 c 0.15,0 0.57,0 0.92,-0.34 0.38,-0.35 0.38,-0.66 0.38,-1.33 0,-0.64 0,-1.04 0.41,-1.42 0.4,-0.35 0.95,-0.41 1.25,-0.41 0.78,0 0.95,0.81 0.95,1.09 0,0.06 0,0.17 -0.13,0.17 -0.11,0 -0.11,-0.09 -0.12,-0.16 -0.06,-0.71 -0.41,-0.89 -0.66,-0.89 -0.49,0 -0.57,0.51 -0.71,1.43 l -0.13,0.8 c -0.18,0.64 -0.66,0.96 -1.21,1.15 z"
         id="path3641" /><path
         style="fill:#000000;stroke-width:0"
         inkscape:connector-curvature="0"
         d="m 340.1,658.01 0,-0.03 0,-0.03 0,-0.03 0,-0.03 -0.01,-0.03 0,-0.03 0,-0.02 -0.01,-0.02 0,-0.03 -0.01,-0.02 -0.01,-0.02 -0.01,-0.02 -0.01,-0.01 -0.01,-0.02 -0.02,-0.01 -0.02,-0.02 -0.02,-0.01 -0.02,-0.01 -0.01,-0.01 -0.01,0 -0.02,-0.01 -0.01,0 -0.02,-0.01 -0.01,0 -0.02,-0.01 -0.02,0 -0.01,0 -0.02,-0.01 -0.02,0 -0.02,0 -0.02,-0.01 -0.02,0 -0.03,0 -0.02,0 -0.02,-0.01 -0.03,0 -0.03,0 -0.02,0 -0.03,0 -0.03,0 -0.03,0 -0.03,-0.01 -0.03,0 -0.04,0 -0.03,0 -0.04,0 h -0.24 v -0.31 h 5.75 l 0.41,2.57 h -0.25 c -0.25,-1.53 -0.47,-2.26 -2.18,-2.26 h -1.33 c -0.47,0 -0.49,0.07 -0.49,0.4 v 2.65 h 0.9 c 0.97,0 1.07,-0.31 1.07,-1.16 h 0.25 v 2.63 h -0.25 c 0,-0.85 -0.1,-1.16 -1.07,-1.16 h -0.9 v 2.38 c 0,0.33 0.02,0.4 0.49,0.4 h 1.29 c 1.52,0 1.79,-0.54 1.94,-1.92 h 0.25 l -0.27,2.23 h -5.61 v -0.31 h 0.24 c 0.77,0 0.79,-0.11 0.79,-0.46 z"
         id="path3643" /><path
         style="fill:#000000;stroke-width:0"
         inkscape:connector-curvature="0"
         d="m 351.32,659.8 h -0.25 c -0.11,-1.02 -0.25,-2.26 -2,-2.26 h -0.82 c -0.46,0 -0.48,0.07 -0.48,0.4 v 5.29 c 0,0.34 0,0.48 0.94,0.48 h 0.33 v 0.31 c -0.36,-0.03 -1.27,-0.03 -1.67,-0.03 -0.39,0 -1.17,0 -1.51,0.03 v -0.31 h 0.23 c 0.77,0 0.79,-0.11 0.79,-0.47 v -5.23 c 0,-0.36 -0.02,-0.47 -0.79,-0.47 h -0.23 v -0.31 h 5.18 z"
         id="path3645" /><path
         style="fill:#000000;stroke-width:0"
         inkscape:connector-curvature="0"
         d="m 355.71,664.15 0,0.01 -0.01,0.01 0,0.01 0,0.01 -0.01,0.02 0,0.01 -0.01,0.01 0,0 -0.01,0.01 0,0.01 0,0.01 -0.01,0.01 0,0.01 -0.01,0 0,0.01 -0.01,0.01 -0.01,0 0,0.01 -0.01,0 -0.01,0.01 0,0 -0.01,0.01 -0.01,0 -0.01,0.01 -0.01,0 -0.01,0 -0.01,0 -0.01,0 -0.01,0.01 -0.02,0 -0.01,0 -0.01,0 -0.01,0 c -0.15,0 -0.18,-0.06 -0.24,-0.2 l -2.05,-5.94 c -0.18,-0.51 -0.58,-0.66 -1.12,-0.67 v -0.31 c 0.23,0.01 0.66,0.04 1.02,0.04 0.3,0 0.82,-0.03 1.14,-0.04 v 0.31 c -0.5,0 -0.75,0.25 -0.75,0.51 0,0.03 0.01,0.13 0.02,0.15 l 0.46,1.3 0.11,0.31 1.11,3.23 1.13,-3.23 h -2.24 l -0.11,-0.31 h 2.46 l 0.53,-1.52 c 0.01,-0.04 0.03,-0.1 0.03,-0.14 0,-0.3 -0.56,-0.3 -0.83,-0.3 v -0.31 c 0.36,0.04 1.05,0.04 1.43,0.04 0.43,0 0.89,-0.01 1.31,-0.04 v 0.31 h -0.18 c -0.6,0 -0.74,0.07 -0.85,0.4 z"
         id="path3647" /><path
         style="fill:#000000;stroke-width:0"
         inkscape:connector-curvature="0"
         d="m 361.48,660.37 -0.03,0.26 v 2.69 c 0,0.32 0.02,0.39 0.49,0.39 h 0.89 c 1.58,0 1.58,-1.05 1.58,-1.54 0,-0.46 0,-1.54 -1.58,-1.54 h -1.38 l 0.03,-0.26 h 1.69 c 1.19,0 2.26,0.81 2.26,1.8 0,0.98 -0.98,1.85 -2.35,1.85 h -3.51 v -0.31 h 0.24 c 0.77,0 0.79,-0.11 0.79,-0.47 v -5.23 c 0,-0.36 -0.02,-0.47 -0.79,-0.47 h -0.24 v -0.31 c 0.35,0.04 1.09,0.04 1.47,0.04 0.37,0 1.12,0 1.47,-0.04 v 0.31 h -0.24 c -0.77,0 -0.79,0.11 -0.79,0.47 z"
         id="path3649" /></g>    <g
       ns0:preamble=""
       ns0:text="Perfil de temperaturas en la pastilla "
       word-spacing="normal"
       letter-spacing="normal"
       font-size-adjust="none"
       font-stretch="normal"
       font-weight="normal"
       font-variant="normal"
       font-style="normal"
       stroke-miterlimit="10.433"
       xml:space="preserve"
       transform="matrix(6,0,0,-6,-410.06071,4302.0101)"
       id="g3797"
       style="font-style:normal;font-variant:normal;font-weight:normal;font-stretch:normal;letter-spacing:normal;word-spacing:normal;text-anchor:start;fill:none;stroke:#000000;stroke-linecap:butt;stroke-linejoin:miter;stroke-miterlimit:10.43299961;stroke-opacity:1;stroke-dasharray:none;stroke-dashoffset:0"><path
         id="path3799"
         d="m 225.69,660.37 -0.03,0.26 v 2.69 c 0,0.32 0.02,0.39 0.49,0.39 h 0.88 c 1.59,0 1.59,-1.05 1.59,-1.54 0,-0.46 0,-1.54 -1.59,-1.54 h -1.37 l 0.03,-0.26 h 1.68 c 1.2,0 2.27,0.81 2.27,1.8 0,0.98 -0.99,1.85 -2.35,1.85 h -3.51 v -0.31 h 0.24 c 0.77,0 0.78,-0.11 0.78,-0.47 v -5.23 c 0,-0.36 -0.01,-0.47 -0.78,-0.47 h -0.24 v -0.31 c 0.35,0.04 1.09,0.04 1.46,0.04 0.38,0 1.13,0 1.47,-0.04 v 0.31 h -0.23 c -0.77,0 -0.79,0.11 -0.79,0.47 z"
         inkscape:connector-curvature="0"
         style="fill:#000000;stroke-width:0" /><path
         id="path3801"
         d="m 231.04,659.53 0.01,0.21 c 0.06,1.48 0.89,1.73 1.23,1.73 1.03,0 1.13,-1.34 1.13,-1.73 h -2.36 l -0.01,-0.21 h 2.77 c 0.22,0 0.25,0 0.25,0.21 0,0.98 -0.54,1.94 -1.78,1.94 -1.15,0 -2.07,-1.02 -2.07,-2.26 0,-1.33 1.05,-2.29 2.19,-2.29 1.22,0 1.66,1.1 1.66,1.29 0,0.1 -0.08,0.12 -0.13,0.12 -0.09,0 -0.11,-0.06 -0.13,-0.14 -0.34,-1.03 -1.24,-1.03 -1.34,-1.03 -0.5,0 -0.89,0.3 -1.12,0.67 -0.3,0.48 -0.3,1.13 -0.3,1.49 z"
         inkscape:connector-curvature="0"
         style="fill:#000000;stroke-width:0" /><path
         id="path3803"
         d="m 236.02,660.53 v 1.1 l -1.38,-0.11 v -0.31 c 0.7,0 0.78,-0.07 0.78,-0.56 v -2.66 c 0,-0.45 -0.11,-0.45 -0.78,-0.45 v -0.31 c 0.39,0.01 0.85,0.04 1.13,0.04 0.4,0 0.87,0 1.27,-0.04 v 0.31 h -0.21 c -0.74,0 -0.76,0.11 -0.76,0.47 v 1.53 c 0,0.98 0.42,1.87 1.18,1.87 0.07,0 0.09,0 0.11,-0.01 -0.03,-0.01 -0.23,-0.13 -0.23,-0.39 0,-0.28 0.21,-0.43 0.42,-0.43 0.18,0 0.43,0.12 0.43,0.44 0,0.32 -0.31,0.61 -0.73,0.61 -0.73,0 -1.09,-0.67 -1.23,-1.1 z"
         inkscape:connector-curvature="0"
         style="fill:#000000;stroke-width:0" /><path
         id="path3805"
         d="m 241.55,661.21 0.02,0 0.02,0 0.02,0 0.02,0 0.02,0 0.02,0 0.03,-0.01 0.03,0 0.04,-0.01 0.02,0 0.03,-0.01 0.03,-0.01 0.02,0 0.02,-0.01 0.02,-0.01 0.02,-0.02 0.02,-0.01 0.02,-0.01 0.01,-0.02 0.02,-0.01 0.01,-0.02 0.01,-0.02 0.01,-0.02 0.01,-0.02 0,-0.02 0.01,-0.03 0.01,-0.02 0,-0.03 0,-0.03 0.01,-0.03 0,-0.03 0,-0.03 0,-0.03 0,-0.04 0,-0.04 v -2.68 c 0,-0.45 -0.11,-0.45 -0.77,-0.45 v -0.31 c 0.33,0.01 0.85,0.04 1.1,0.04 0.25,0 0.74,-0.03 1.11,-0.04 v 0.31 c -0.67,0 -0.78,0 -0.78,0.45 v 3.65 l -1.25,-0.09 c -0.16,-0.01 -0.17,-0.02 -0.18,-0.02 -0.02,-0.01 -0.04,-0.01 -0.18,-0.01 h -1.17 v 1.12 c 0,0.98 0.85,1.38 1.47,1.38 0.3,0 0.65,-0.1 0.85,-0.33 -0.4,-0.02 -0.47,-0.3 -0.47,-0.46 0,-0.32 0.26,-0.45 0.45,-0.45 0.23,0 0.46,0.16 0.46,0.45 0,0.59 -0.55,1.01 -1.28,1.01 -0.93,0 -2.11,-0.51 -2.11,-1.59 v -1.13 h -0.79 v -0.31 h 0.79 v -3.22 c 0,-0.45 -0.11,-0.45 -0.78,-0.45 v -0.31 c 0.33,0.01 0.86,0.04 1.11,0.04 0.25,0 0.73,-0.03 1.1,-0.04 v 0.31 c -0.67,0 -0.77,0 -0.77,0.45 v 3.22 z"
         inkscape:connector-curvature="0"
         style="fill:#000000;stroke-width:0" /><path
         id="path3807"
         d="m 245.56,664.13 -1.43,-0.11 v -0.31 c 0.69,0 0.77,-0.07 0.77,-0.55 v -5.17 c 0,-0.45 -0.11,-0.45 -0.77,-0.45 v -0.31 c 0.33,0.01 0.85,0.04 1.1,0.04 0.25,0 0.74,-0.03 1.11,-0.04 v 0.31 c -0.67,0 -0.78,0 -0.78,0.45 z"
         inkscape:connector-curvature="0"
         style="fill:#000000;stroke-width:0" /><path
         id="path3809"
         d="m 253.66,657.78 v -0.65 l 1.47,0.1 v 0.31 c -0.7,0 -0.78,0.07 -0.78,0.56 v 6.03 l -1.43,-0.11 v -0.31 c 0.7,0 0.77,-0.07 0.77,-0.55 v -2.15 c -0.28,0.36 -0.71,0.62 -1.25,0.62 l 0.04,-0.22 c 0.35,0 0.77,-0.15 1.07,-0.6 0.11,-0.17 0.11,-0.19 0.11,-0.37 h 0 v -2.03 c 0,-0.18 0,-0.2 -0.11,-0.37 -0.29,-0.48 -0.74,-0.7 -1.17,-0.7 -0.45,0 -0.81,0.26 -1.04,0.64 -0.26,0.41 -0.29,0.97 -0.29,1.38 0,0.37 0.02,0.96 0.31,1.41 0.21,0.31 0.58,0.64 1.12,0.64 l -0.04,0.22 c -1.17,0 -2.22,-0.98 -2.22,-2.26 0,-1.26 0.98,-2.24 2.11,-2.24 0.64,0 1.09,0.33 1.33,0.65 z"
         inkscape:connector-curvature="0"
         style="fill:#000000;stroke-width:0" /><path
         id="path3811"
         d="m 256.52,659.53 0.01,0.21 c 0.06,1.48 0.9,1.73 1.24,1.73 1.02,0 1.12,-1.34 1.12,-1.73 h -2.36 l -0.01,-0.21 h 2.78 c 0.22,0 0.25,0 0.25,0.21 0,0.98 -0.54,1.94 -1.78,1.94 -1.16,0 -2.07,-1.02 -2.07,-2.26 0,-1.33 1.04,-2.29 2.19,-2.29 1.21,0 1.66,1.1 1.66,1.29 0,0.1 -0.08,0.12 -0.13,0.12 -0.09,0 -0.11,-0.06 -0.13,-0.14 -0.35,-1.03 -1.24,-1.03 -1.34,-1.03 -0.5,0 -0.9,0.3 -1.13,0.67 -0.3,0.48 -0.3,1.13 -0.3,1.49 z"
         inkscape:connector-curvature="0"
         style="fill:#000000;stroke-width:0" /><path
         id="path3813"
         d="m 264.89,661.21 h 1.43 v 0.31 h -1.43 v 1.82 h -0.24 c -0.01,-0.81 -0.31,-1.87 -1.29,-1.91 v -0.22 h 0.85 v -2.74 c 0,-1.23 0.92,-1.34 1.28,-1.34 0.71,0 0.99,0.7 0.99,1.34 v 0.56 h -0.25 v -0.54 c 0,-0.74 -0.3,-1.12 -0.67,-1.12 -0.67,0 -0.67,0.91 -0.67,1.08 z"
         inkscape:connector-curvature="0"
         style="fill:#000000;stroke-width:0" /><path
         id="path3815"
         d="m 268.15,659.53 0.01,0.21 c 0.06,1.48 0.9,1.73 1.24,1.73 1.02,0 1.12,-1.34 1.12,-1.73 h -2.36 l -0.01,-0.21 h 2.78 c 0.22,0 0.25,0 0.25,0.21 0,0.98 -0.54,1.94 -1.78,1.94 -1.16,0 -2.07,-1.02 -2.07,-2.26 0,-1.33 1.04,-2.29 2.19,-2.29 1.21,0 1.66,1.1 1.66,1.29 0,0.1 -0.08,0.12 -0.13,0.12 -0.09,0 -0.11,-0.06 -0.13,-0.14 -0.35,-1.03 -1.25,-1.03 -1.34,-1.03 -0.5,0 -0.9,0.3 -1.13,0.67 -0.3,0.48 -0.3,1.13 -0.3,1.49 z"
         inkscape:connector-curvature="0"
         style="fill:#000000;stroke-width:0" /><path
         id="path3817"
         d="m 272.57,660.65 v -2.66 c 0,-0.45 -0.11,-0.45 -0.78,-0.45 v -0.31 c 0.35,0.01 0.86,0.04 1.13,0.04 0.26,0 0.77,-0.03 1.11,-0.04 v 0.31 c -0.66,0 -0.77,0 -0.77,0.45 v 1.83 c 0,1.03 0.7,1.59 1.34,1.59 0.63,0 0.74,-0.54 0.74,-1.11 v -2.31 c 0,-0.45 -0.11,-0.45 -0.78,-0.45 v -0.31 c 0.35,0.01 0.86,0.04 1.12,0.04 0.26,0 0.78,-0.03 1.12,-0.04 v 0.31 c -0.67,0 -0.78,0 -0.78,0.45 v 1.83 c 0,1.03 0.71,1.59 1.35,1.59 0.62,0 0.73,-0.54 0.73,-1.11 v -2.31 c 0,-0.45 -0.11,-0.45 -0.77,-0.45 v -0.31 c 0.34,0.01 0.85,0.04 1.12,0.04 0.26,0 0.78,-0.03 1.11,-0.04 v 0.31 c -0.51,0 -0.76,0 -0.77,0.3 v 1.9 c 0,0.85 0,1.16 -0.31,1.52 -0.14,0.17 -0.47,0.37 -1.05,0.37 -0.83,0 -1.27,-0.6 -1.44,-0.98 -0.14,0.87 -0.87,0.98 -1.32,0.98 -0.73,0 -1.19,-0.43 -1.47,-1.05 v 1.05 l -1.41,-0.11 v -0.31 c 0.7,0 0.78,-0.07 0.78,-0.56 z"
         inkscape:connector-curvature="0"
         style="fill:#000000;stroke-width:0" /><path
         id="path3819"
         d="m 281.49,660.97 v 0.66 l -1.43,-0.11 v -0.31 c 0.7,0 0.77,-0.06 0.77,-0.5 v -4.65 c 0,-0.44 -0.11,-0.44 -0.77,-0.44 v -0.31 c 0.33,0.01 0.85,0.03 1.11,0.03 0.27,0 0.78,-0.02 1.13,-0.03 v 0.31 c -0.67,0 -0.78,0 -0.78,0.44 v 1.67 0.09 l 0.14,0.13 c -0.14,0.21 -0.14,0.22 -0.14,0.42 h 0 v 2.21 c 0.29,0.51 0.78,0.8 1.28,0.8 0.73,0 1.34,-0.88 1.34,-2 0,-1.2 -0.7,-2.04 -1.44,-2.04 -0.4,0 -0.77,0.2 -1.04,0.61 l -0.14,-0.13 c 0.05,-0.16 0.47,-0.69 1.22,-0.69 1.19,0 2.22,0.97 2.22,2.25 0,1.26 -0.96,2.25 -2.08,2.25 -0.77,0 -1.19,-0.44 -1.39,-0.66 z"
         inkscape:connector-curvature="0"
         style="fill:#000000;stroke-width:0" /><path
         id="path3821"
         d="m 286.7,659.53 0.01,0.21 c 0.06,1.48 0.89,1.73 1.23,1.73 1.02,0 1.12,-1.34 1.12,-1.73 h -2.35 l -0.01,-0.21 h 2.77 c 0.22,0 0.25,0 0.25,0.21 0,0.98 -0.54,1.94 -1.78,1.94 -1.15,0 -2.07,-1.02 -2.07,-2.26 0,-1.33 1.05,-2.29 2.19,-2.29 1.21,0 1.66,1.1 1.66,1.29 0,0.1 -0.08,0.12 -0.13,0.12 -0.09,0 -0.11,-0.06 -0.13,-0.14 -0.35,-1.03 -1.24,-1.03 -1.34,-1.03 -0.5,0 -0.9,0.3 -1.13,0.67 -0.29,0.48 -0.29,1.13 -0.29,1.49 z"
         inkscape:connector-curvature="0"
         style="fill:#000000;stroke-width:0" /><path
         id="path3823"
         d="m 291.68,660.53 v 1.1 l -1.38,-0.11 v -0.31 c 0.69,0 0.77,-0.07 0.77,-0.56 v -2.66 c 0,-0.45 -0.11,-0.45 -0.77,-0.45 v -0.31 c 0.38,0.01 0.85,0.04 1.13,0.04 0.4,0 0.87,0 1.27,-0.04 v 0.31 h -0.21 c -0.74,0 -0.76,0.11 -0.76,0.47 v 1.53 c 0,0.98 0.42,1.87 1.17,1.87 0.07,0 0.09,0 0.11,-0.01 -0.03,-0.01 -0.22,-0.13 -0.22,-0.39 0,-0.28 0.2,-0.43 0.42,-0.43 0.18,0 0.43,0.12 0.43,0.44 0,0.32 -0.31,0.61 -0.74,0.61 -0.72,0 -1.08,-0.67 -1.22,-1.1 z"
         inkscape:connector-curvature="0"
         style="fill:#000000;stroke-width:0" /><path
         id="path3825"
         d="m 297.23,657.99 0.01,-0.04 0,-0.03 0.01,-0.04 0.01,-0.04 0.01,-0.04 0.01,-0.03 0.01,-0.04 0.02,-0.03 0.01,-0.04 0.02,-0.03 0.02,-0.04 0.01,-0.03 0.02,-0.03 0.03,-0.04 0.02,-0.03 0.02,-0.03 0.03,-0.02 0.02,-0.03 0.03,-0.03 0.03,-0.02 0.03,-0.02 0.03,-0.03 0.03,-0.02 0.04,-0.01 0.03,-0.02 0.04,-0.01 0.04,-0.02 0.03,-0.01 0.04,0 0.04,-0.01 0.05,0 0.04,-0.01 c 0.21,0 0.82,0.14 0.82,0.95 v 0.55 h -0.25 v -0.55 c 0,-0.58 -0.25,-0.64 -0.36,-0.64 -0.33,0 -0.37,0.45 -0.37,0.5 v 1.99 c 0,0.41 0,0.8 -0.36,1.17 -0.38,0.39 -0.88,0.54 -1.36,0.54 -0.82,0 -1.5,-0.46 -1.5,-1.12 0,-0.29 0.2,-0.46 0.45,-0.46 0.28,0 0.46,0.19 0.46,0.45 0,0.12 -0.05,0.45 -0.5,0.46 0.26,0.35 0.75,0.46 1.07,0.46 0.49,0 1.06,-0.39 1.06,-1.27 v -0.37 -0.21 -0.99 c 0,-0.95 -0.72,-1.29 -1.17,-1.29 -0.49,0 -0.89,0.35 -0.89,0.85 0,0.54 0.41,1.37 2.06,1.43 h 0 v 0.21 c -0.51,-0.03 -1.21,-0.06 -1.84,-0.36 -0.74,-0.34 -0.99,-0.85 -0.99,-1.29 0,-0.81 0.96,-1.05 1.59,-1.05 0.66,0 1.12,0.39 1.3,0.86 z"
         inkscape:connector-curvature="0"
         style="fill:#000000;stroke-width:0" /><path
         id="path3827"
         d="m 300.62,661.21 h 1.43 v 0.31 h -1.43 v 1.82 h -0.24 c -0.02,-0.81 -0.31,-1.87 -1.29,-1.91 v -0.22 h 0.85 v -2.74 c 0,-1.23 0.92,-1.34 1.28,-1.34 0.71,0 0.99,0.7 0.99,1.34 v 0.56 h -0.25 v -0.54 c 0,-0.74 -0.3,-1.12 -0.67,-1.12 -0.67,0 -0.67,0.91 -0.67,1.08 z"
         inkscape:connector-curvature="0"
         style="fill:#000000;stroke-width:0" /><path
         id="path3829"
         d="m 306.67,658.02 v -0.89 l 1.43,0.1 v 0.31 c -0.7,0 -0.78,0.07 -0.78,0.56 v 3.53 l -1.46,-0.11 v -0.31 c 0.7,0 0.78,-0.07 0.78,-0.56 v -1.77 c 0,-0.86 -0.48,-1.54 -1.21,-1.54 -0.83,0 -0.87,0.47 -0.87,0.99 v 3.3 l -1.46,-0.11 v -0.31 c 0.77,0 0.77,-0.03 0.77,-0.92 v -1.49 c 0,-0.77 0,-1.67 1.51,-1.67 0.56,0 1,0.27 1.29,0.89 z"
         inkscape:connector-curvature="0"
         style="fill:#000000;stroke-width:0" /><path
         id="path3831"
         d="m 309.97,660.53 v 1.1 l -1.38,-0.11 v -0.31 c 0.7,0 0.78,-0.07 0.78,-0.56 v -2.66 c 0,-0.45 -0.11,-0.45 -0.78,-0.45 v -0.31 c 0.39,0.01 0.86,0.04 1.14,0.04 0.39,0 0.86,0 1.26,-0.04 v 0.31 h -0.21 c -0.74,0 -0.76,0.11 -0.76,0.47 v 1.53 c 0,0.98 0.42,1.87 1.18,1.87 0.07,0 0.09,0 0.11,-0.01 -0.03,-0.01 -0.23,-0.13 -0.23,-0.39 0,-0.28 0.21,-0.43 0.43,-0.43 0.17,0 0.42,0.12 0.42,0.44 0,0.32 -0.31,0.61 -0.73,0.61 -0.73,0 -1.09,-0.67 -1.23,-1.1 z"
         inkscape:connector-curvature="0"
         style="fill:#000000;stroke-width:0" /><path
         id="path3833"
         d="m 315.53,657.99 0,-0.04 0.01,-0.03 0.01,-0.04 0,-0.04 0.01,-0.04 0.01,-0.03 0.02,-0.04 0.01,-0.03 0.01,-0.04 0.02,-0.03 0.02,-0.04 0.02,-0.03 0.02,-0.03 0.02,-0.04 0.02,-0.03 0.03,-0.03 0.02,-0.02 0.03,-0.03 0.02,-0.03 0.03,-0.02 0.03,-0.02 0.03,-0.03 0.04,-0.02 0.03,-0.01 0.04,-0.02 0.03,-0.01 0.04,-0.02 0.04,-0.01 0.04,0 0.04,-0.01 0.04,0 0.04,-0.01 c 0.21,0 0.82,0.14 0.82,0.95 v 0.55 h -0.25 v -0.55 c 0,-0.58 -0.25,-0.64 -0.36,-0.64 -0.33,0 -0.37,0.45 -0.37,0.5 v 1.99 c 0,0.41 0,0.8 -0.35,1.17 -0.39,0.39 -0.89,0.54 -1.37,0.54 -0.81,0 -1.5,-0.46 -1.5,-1.12 0,-0.29 0.2,-0.46 0.46,-0.46 0.28,0 0.46,0.19 0.46,0.45 0,0.12 -0.05,0.45 -0.51,0.46 0.27,0.35 0.75,0.46 1.07,0.46 0.49,0 1.06,-0.39 1.06,-1.27 v -0.37 -0.21 -0.99 c 0,-0.95 -0.72,-1.29 -1.17,-1.29 -0.48,0 -0.89,0.35 -0.89,0.85 0,0.54 0.42,1.37 2.06,1.43 h 0 v 0.21 c -0.51,-0.03 -1.21,-0.06 -1.83,-0.36 -0.75,-0.34 -1,-0.85 -1,-1.29 0,-0.81 0.97,-1.05 1.59,-1.05 0.66,0 1.12,0.39 1.31,0.86 z"
         inkscape:connector-curvature="0"
         style="fill:#000000;stroke-width:0" /><path
         id="path3835"
         d="m 319.27,659.16 0.02,0 0.02,-0.01 0.03,0 0.03,-0.01 0.04,-0.01 0.03,-0.01 0.04,-0.01 0.04,-0.01 0.04,-0.01 0.04,-0.01 0.05,-0.02 0.04,-0.02 0.04,-0.01 0.05,-0.03 0.04,-0.02 0.04,-0.02 0.05,-0.03 0.04,-0.03 0.04,-0.03 0.04,-0.03 0.04,-0.03 0.03,-0.04 0.04,-0.04 0.03,-0.04 0.03,-0.05 0.01,-0.02 0.01,-0.03 0.01,-0.02 0.02,-0.03 0.01,-0.02 0,-0.03 0.01,-0.03 0.01,-0.02 0.01,-0.03 0,-0.03 0,-0.03 0.01,-0.04 0,-0.03 0,-0.03 c 0,-0.51 -0.35,-0.91 -1.12,-0.91 -0.84,0 -1.2,0.57 -1.39,1.42 -0.03,0.12 -0.04,0.16 -0.14,0.16 -0.13,0 -0.13,-0.07 -0.13,-0.25 v -1.31 c 0,-0.16 0,-0.23 0.11,-0.23 0.05,0 0.06,0.01 0.25,0.19 0.02,0.02 0.02,0.04 0.2,0.23 0.44,-0.41 0.89,-0.42 1.1,-0.42 1.14,0 1.6,0.66 1.6,1.38 0,0.52 -0.3,0.82 -0.42,0.94 -0.33,0.32 -0.72,0.4 -1.13,0.48 -0.56,0.11 -1.23,0.23 -1.23,0.81 0,0.35 0.26,0.76 1.12,0.76 1.09,0 1.14,-0.9 1.16,-1.21 0.01,-0.08 0.1,-0.08 0.12,-0.08 0.13,0 0.13,0.05 0.13,0.23 v 1.01 c 0,0.17 0,0.23 -0.11,0.23 -0.05,0 -0.07,0 -0.2,-0.11 -0.03,-0.04 -0.13,-0.13 -0.17,-0.16 -0.38,0.27 -0.78,0.27 -0.93,0.27 -1.22,0 -1.6,-0.66 -1.6,-1.22 0,-0.34 0.16,-0.62 0.43,-0.84 0.32,-0.26 0.6,-0.32 1.32,-0.46 z"
         inkscape:connector-curvature="0"
         style="fill:#000000;stroke-width:0" /><path
         id="path3837"
         d="m 325.55,659.53 0.01,0.21 c 0.06,1.48 0.89,1.73 1.23,1.73 1.03,0 1.13,-1.34 1.13,-1.73 h -2.36 l -0.01,-0.21 h 2.77 c 0.22,0 0.25,0 0.25,0.21 0,0.98 -0.54,1.94 -1.78,1.94 -1.15,0 -2.07,-1.02 -2.07,-2.26 0,-1.33 1.05,-2.29 2.19,-2.29 1.21,0 1.66,1.1 1.66,1.29 0,0.1 -0.08,0.12 -0.13,0.12 -0.09,0 -0.11,-0.06 -0.13,-0.14 -0.35,-1.03 -1.24,-1.03 -1.34,-1.03 -0.5,0 -0.9,0.3 -1.12,0.67 -0.3,0.48 -0.3,1.13 -0.3,1.49 z"
         inkscape:connector-curvature="0"
         style="fill:#000000;stroke-width:0" /><path
         id="path3839"
         d="m 329.96,660.65 v -2.66 c 0,-0.45 -0.1,-0.45 -0.77,-0.45 v -0.31 c 0.35,0.01 0.85,0.04 1.12,0.04 0.26,0 0.78,-0.03 1.12,-0.04 v 0.31 c -0.67,0 -0.78,0 -0.78,0.45 v 1.83 c 0,1.03 0.71,1.59 1.34,1.59 0.63,0 0.74,-0.54 0.74,-1.11 v -2.31 c 0,-0.45 -0.11,-0.45 -0.78,-0.45 v -0.31 c 0.35,0.01 0.86,0.04 1.13,0.04 0.26,0 0.78,-0.03 1.11,-0.04 v 0.31 c -0.51,0 -0.76,0 -0.77,0.3 v 1.9 c 0,0.85 0,1.16 -0.31,1.52 -0.14,0.17 -0.47,0.37 -1.05,0.37 -0.72,0 -1.19,-0.43 -1.47,-1.05 v 1.05 l -1.4,-0.11 v -0.31 c 0.7,0 0.77,-0.07 0.77,-0.56 z"
         inkscape:connector-curvature="0"
         style="fill:#000000;stroke-width:0" /><path
         id="path3841"
         d="m 339.48,664.13 -1.43,-0.11 v -0.31 c 0.7,0 0.78,-0.07 0.78,-0.55 v -5.17 c 0,-0.45 -0.11,-0.45 -0.78,-0.45 v -0.31 c 0.33,0.01 0.86,0.04 1.1,0.04 0.25,0 0.74,-0.03 1.11,-0.04 v 0.31 c -0.67,0 -0.78,0 -0.78,0.45 z"
         inkscape:connector-curvature="0"
         style="fill:#000000;stroke-width:0" /><path
         id="path3843"
         d="m 343.8,657.99 0.01,-0.04 0,-0.03 0.01,-0.04 0.01,-0.04 0.01,-0.04 0.01,-0.03 0.01,-0.04 0.02,-0.03 0.01,-0.04 0.02,-0.03 0.01,-0.04 0.02,-0.03 0.02,-0.03 0.02,-0.04 0.03,-0.03 0.02,-0.03 0.03,-0.02 0.02,-0.03 0.03,-0.03 0.03,-0.02 0.03,-0.02 0.03,-0.03 0.03,-0.02 0.04,-0.01 0.03,-0.02 0.04,-0.01 0.03,-0.02 0.04,-0.01 0.04,0 0.04,-0.01 0.05,0 0.04,-0.01 c 0.21,0 0.81,0.14 0.81,0.95 v 0.55 h -0.24 v -0.55 c 0,-0.58 -0.25,-0.64 -0.36,-0.64 -0.33,0 -0.37,0.45 -0.37,0.5 v 1.99 c 0,0.41 0,0.8 -0.36,1.17 -0.39,0.39 -0.88,0.54 -1.36,0.54 -0.82,0 -1.5,-0.46 -1.5,-1.12 0,-0.29 0.2,-0.46 0.45,-0.46 0.28,0 0.46,0.19 0.46,0.45 0,0.12 -0.05,0.45 -0.5,0.46 0.26,0.35 0.75,0.46 1.07,0.46 0.49,0 1.05,-0.39 1.05,-1.27 v -0.37 -0.21 -0.99 c 0,-0.95 -0.71,-1.29 -1.16,-1.29 -0.49,0 -0.9,0.35 -0.9,0.85 0,0.54 0.42,1.37 2.06,1.43 h 0 v 0.21 c -0.5,-0.03 -1.2,-0.06 -1.83,-0.36 -0.74,-0.34 -0.99,-0.85 -0.99,-1.29 0,-0.81 0.96,-1.05 1.59,-1.05 0.66,0 1.11,0.39 1.3,0.86 z"
         inkscape:connector-curvature="0"
         style="fill:#000000;stroke-width:0" /><path
         id="path3845"
         d="m 350.51,660.97 v 0.66 l -1.43,-0.11 v -0.31 c 0.7,0 0.77,-0.06 0.77,-0.5 v -4.65 c 0,-0.44 -0.11,-0.44 -0.77,-0.44 v -0.31 c 0.34,0.01 0.85,0.03 1.11,0.03 0.27,0 0.78,-0.02 1.13,-0.03 v 0.31 c -0.67,0 -0.78,0 -0.78,0.44 v 1.67 0.09 l 0.14,0.13 c -0.14,0.21 -0.14,0.22 -0.14,0.42 h 0 v 2.21 c 0.29,0.51 0.78,0.8 1.28,0.8 0.73,0 1.34,-0.88 1.34,-2 0,-1.2 -0.7,-2.04 -1.44,-2.04 -0.39,0 -0.77,0.2 -1.04,0.61 l -0.14,-0.13 c 0.05,-0.16 0.47,-0.69 1.22,-0.69 1.19,0 2.22,0.97 2.22,2.25 0,1.26 -0.96,2.25 -2.08,2.25 -0.77,0 -1.19,-0.44 -1.39,-0.66 z"
         inkscape:connector-curvature="0"
         style="fill:#000000;stroke-width:0" /><path
         id="path3847"
         d="m 357.65,657.99 0,-0.04 0.01,-0.03 0,-0.04 0.01,-0.04 0.01,-0.04 0.01,-0.03 0.02,-0.04 0.01,-0.03 0.01,-0.04 0.02,-0.03 0.02,-0.04 0.02,-0.03 0.02,-0.03 0.02,-0.04 0.02,-0.03 0.02,-0.03 0.03,-0.02 0.03,-0.03 0.02,-0.03 0.03,-0.02 0.03,-0.02 0.03,-0.03 0.04,-0.02 0.03,-0.01 0.04,-0.02 0.03,-0.01 0.04,-0.02 0.04,-0.01 0.04,0 0.04,-0.01 0.04,0 0.04,-0.01 c 0.21,0 0.82,0.14 0.82,0.95 v 0.55 h -0.25 v -0.55 c 0,-0.58 -0.25,-0.64 -0.36,-0.64 -0.33,0 -0.37,0.45 -0.37,0.5 v 1.99 c 0,0.41 0,0.8 -0.35,1.17 -0.39,0.39 -0.89,0.54 -1.37,0.54 -0.81,0 -1.5,-0.46 -1.5,-1.12 0,-0.29 0.2,-0.46 0.46,-0.46 0.28,0 0.46,0.19 0.46,0.45 0,0.12 -0.05,0.45 -0.51,0.46 0.27,0.35 0.75,0.46 1.07,0.46 0.49,0 1.06,-0.39 1.06,-1.27 v -0.37 -0.21 -0.99 c 0,-0.95 -0.72,-1.29 -1.17,-1.29 -0.48,0 -0.89,0.35 -0.89,0.85 0,0.54 0.42,1.37 2.06,1.43 h 0 v 0.21 c -0.51,-0.03 -1.21,-0.06 -1.83,-0.36 -0.75,-0.34 -1,-0.85 -1,-1.29 0,-0.81 0.97,-1.05 1.59,-1.05 0.66,0 1.12,0.39 1.31,0.86 z"
         inkscape:connector-curvature="0"
         style="fill:#000000;stroke-width:0" /><path
         id="path3849"
         d="m 361.39,659.16 0.02,0 0.02,-0.01 0.03,0 0.03,-0.01 0.04,-0.01 0.03,-0.01 0.04,-0.01 0.04,-0.01 0.04,-0.01 0.04,-0.01 0.05,-0.02 0.04,-0.02 0.04,-0.01 0.05,-0.03 0.04,-0.02 0.04,-0.02 0.05,-0.03 0.04,-0.03 0.04,-0.03 0.04,-0.03 0.04,-0.03 0.03,-0.04 0.04,-0.04 0.03,-0.04 0.03,-0.05 0.01,-0.02 0.01,-0.03 0.01,-0.02 0.02,-0.03 0.01,-0.02 0,-0.03 0.01,-0.03 0.01,-0.02 0.01,-0.03 0,-0.03 0,-0.03 0.01,-0.04 0,-0.03 0,-0.03 c 0,-0.51 -0.35,-0.91 -1.12,-0.91 -0.84,0 -1.2,0.57 -1.39,1.42 -0.03,0.12 -0.04,0.16 -0.14,0.16 -0.13,0 -0.13,-0.07 -0.13,-0.25 v -1.31 c 0,-0.16 0,-0.23 0.11,-0.23 0.05,0 0.06,0.01 0.25,0.19 0.02,0.02 0.02,0.04 0.2,0.23 0.44,-0.41 0.89,-0.42 1.1,-0.42 1.14,0 1.6,0.66 1.6,1.38 0,0.52 -0.3,0.82 -0.42,0.94 -0.33,0.32 -0.72,0.4 -1.13,0.48 -0.56,0.11 -1.23,0.23 -1.23,0.81 0,0.35 0.26,0.76 1.12,0.76 1.09,0 1.14,-0.9 1.16,-1.21 0.01,-0.08 0.1,-0.08 0.12,-0.08 0.13,0 0.13,0.05 0.13,0.23 v 1.01 c 0,0.17 0,0.23 -0.11,0.23 -0.05,0 -0.07,0 -0.2,-0.11 -0.03,-0.04 -0.13,-0.13 -0.17,-0.16 -0.38,0.27 -0.78,0.27 -0.93,0.27 -1.22,0 -1.6,-0.66 -1.6,-1.22 0,-0.34 0.16,-0.62 0.43,-0.84 0.32,-0.26 0.6,-0.32 1.32,-0.46 z"
         inkscape:connector-curvature="0"
         style="fill:#000000;stroke-width:0" /><path
         id="path3851"
         d="m 364.97,661.21 h 1.42 v 0.31 h -1.42 v 1.82 h -0.25 c -0.01,-0.81 -0.31,-1.87 -1.29,-1.91 v -0.22 h 0.85 v -2.74 c 0,-1.23 0.92,-1.34 1.28,-1.34 0.71,0 0.99,0.7 0.99,1.34 v 0.56 h -0.25 v -0.54 c 0,-0.74 -0.3,-1.12 -0.67,-1.12 -0.66,0 -0.66,0.91 -0.66,1.08 z"
         inkscape:connector-curvature="0"
         style="fill:#000000;stroke-width:0" /><path
         id="path3853"
         d="m 368.88,661.63 -1.39,-0.11 v -0.31 c 0.64,0 0.73,-0.06 0.73,-0.55 v -2.67 c 0,-0.45 -0.11,-0.45 -0.77,-0.45 v -0.31 c 0.32,0.01 0.85,0.04 1.09,0.04 0.35,0 0.7,-0.03 1.04,-0.04 v 0.31 c -0.66,0 -0.7,0.05 -0.7,0.44 z"
         inkscape:connector-curvature="0"
         style="fill:#000000;stroke-width:0" /><path
         id="path3855"
         d="m 368.92,663.35 0,0.03 0,0.03 -0.01,0.03 0,0.03 -0.01,0.02 0,0.03 -0.01,0.03 -0.01,0.02 -0.01,0.02 -0.02,0.03 -0.01,0.02 -0.01,0.02 -0.02,0.02 -0.01,0.02 -0.02,0.02 -0.02,0.02 -0.02,0.01 -0.02,0.02 -0.02,0.01 -0.02,0.02 -0.02,0.01 -0.02,0.01 -0.02,0.01 -0.03,0.01 -0.02,0.01 -0.03,0.01 -0.02,0.01 -0.02,0 -0.03,0.01 -0.03,0 -0.02,0 -0.03,0 c -0.31,0 -0.53,-0.27 -0.53,-0.53 0,-0.26 0.22,-0.52 0.53,-0.52 0.28,0 0.53,0.21 0.53,0.52 z"
         inkscape:connector-curvature="0"
         style="fill:#000000;stroke-width:0" /><path
         id="path3857"
         d="m 371.65,664.13 -1.44,-0.11 v -0.31 c 0.7,0 0.78,-0.07 0.78,-0.55 v -5.17 c 0,-0.45 -0.11,-0.45 -0.78,-0.45 v -0.31 c 0.33,0.01 0.86,0.04 1.11,0.04 0.25,0 0.74,-0.03 1.1,-0.04 v 0.31 c -0.66,0 -0.77,0 -0.77,0.45 z"
         inkscape:connector-curvature="0"
         style="fill:#000000;stroke-width:0" /><path
         id="path3859"
         d="m 374.42,664.13 -1.44,-0.11 v -0.31 c 0.7,0 0.78,-0.07 0.78,-0.55 v -5.17 c 0,-0.45 -0.11,-0.45 -0.78,-0.45 v -0.31 c 0.33,0.01 0.86,0.04 1.11,0.04 0.25,0 0.73,-0.03 1.1,-0.04 v 0.31 c -0.67,0 -0.77,0 -0.77,0.45 z"
         inkscape:connector-curvature="0"
         style="fill:#000000;stroke-width:0" /><path
         id="path3861"
         d="m 378.73,657.99 0.01,-0.04 0.01,-0.03 0,-0.04 0.01,-0.04 0.01,-0.04 0.01,-0.03 0.01,-0.04 0.02,-0.03 0.01,-0.04 0.02,-0.03 0.02,-0.04 0.01,-0.03 0.03,-0.03 0.02,-0.04 0.02,-0.03 0.02,-0.03 0.03,-0.02 0.02,-0.03 0.03,-0.03 0.03,-0.02 0.03,-0.02 0.03,-0.03 0.03,-0.02 0.04,-0.01 0.03,-0.02 0.04,-0.01 0.04,-0.02 0.04,-0.01 0.03,0 0.05,-0.01 0.04,0 0.04,-0.01 c 0.21,0 0.82,0.14 0.82,0.95 v 0.55 h -0.25 v -0.55 c 0,-0.58 -0.25,-0.64 -0.36,-0.64 -0.33,0 -0.37,0.45 -0.37,0.5 v 1.99 c 0,0.41 0,0.8 -0.36,1.17 -0.38,0.39 -0.88,0.54 -1.36,0.54 -0.81,0 -1.5,-0.46 -1.5,-1.12 0,-0.29 0.2,-0.46 0.46,-0.46 0.27,0 0.45,0.19 0.45,0.45 0,0.12 -0.05,0.45 -0.5,0.46 0.26,0.35 0.75,0.46 1.07,0.46 0.49,0 1.06,-0.39 1.06,-1.27 v -0.37 -0.21 -0.99 c 0,-0.95 -0.72,-1.29 -1.17,-1.29 -0.49,0 -0.89,0.35 -0.89,0.85 0,0.54 0.41,1.37 2.06,1.43 h 0 v 0.21 c -0.51,-0.03 -1.21,-0.06 -1.84,-0.36 -0.74,-0.34 -0.99,-0.85 -0.99,-1.29 0,-0.81 0.96,-1.05 1.59,-1.05 0.66,0 1.12,0.39 1.3,0.86 z"
         inkscape:connector-curvature="0"
         style="fill:#000000;stroke-width:0" /></g>    <g
       style="font-style:normal;font-variant:normal;font-weight:normal;font-stretch:normal;letter-spacing:normal;word-spacing:normal;text-anchor:start;fill:none;stroke:#000000;stroke-linecap:butt;stroke-linejoin:miter;stroke-miterlimit:10.43299961;stroke-opacity:1;stroke-dasharray:none;stroke-dashoffset:0"
       id="g3191"
       transform="matrix(6.5528262,0,0,-6.5248539,-1336.9413,5056.0684)"
       xml:space="preserve"
       stroke-miterlimit="10.433"
       font-style="normal"
       font-variant="normal"
       font-weight="normal"
       font-stretch="normal"
       font-size-adjust="none"
       letter-spacing="normal"
       word-spacing="normal"
       ns0:text="$q\\prime$"
       ns0:preamble=""><path
         style="fill:#000000;stroke-width:0"
         inkscape:connector-curvature="0"
         d="m 227.93,661.52 0,0 0,0 0,0.01 0,0 0,0.01 0,0 -0.01,0 0,0.01 0,0 0,0.01 0,0 0,0.01 -0.01,0 0,0 0,0.01 0,0 -0.01,0 0,0.01 0,0 -0.01,0 0,0.01 -0.01,0 0,0 -0.01,0.01 0,0 -0.01,0 0,0 -0.01,0 0,0 -0.01,0.01 0,0 -0.01,0 c -0.11,0 -0.51,-0.4 -0.68,-0.69 -0.22,0.54 -0.6,0.7 -0.92,0.7 v -0.22 c 0.64,0 0.78,-0.81 0.78,-0.88 0,-0.06 -0.54,-2.23 -0.57,-2.27 -0.15,-0.28 -0.71,-0.92 -1.27,-0.92 h 0 c -0.59,0 -0.63,0.77 -0.63,0.94 0,0.48 0.28,1.56 0.45,1.98 0.31,0.73 0.83,1.15 1.24,1.15 v 0.22 c -1.18,0 -2.4,-1.47 -2.4,-2.91 0,-0.98 0.59,-1.59 1.31,-1.59 0.43,0 0.82,0.23 1.18,0.59 -0.09,-0.35 -0.42,-1.69 -0.45,-1.78 -0.08,-0.28 -0.16,-0.31 -0.72,-0.32 -0.13,0 -0.23,0 -0.23,-0.2 0,-0.01 0,-0.11 0.13,-0.11 0.32,0 0.67,0.03 1,0.03 0.34,0 0.69,-0.03 1.02,-0.03 0.05,0 0.18,0 0.18,0.2 0,0.11 -0.1,0.11 -0.26,0.11 -0.47,0 -0.47,0.06 -0.47,0.16 0,0.06 0.02,0.12 0.04,0.21 z"
         id="path3193" /><path
         style="fill:#000000;stroke-width:0"
         inkscape:connector-curvature="0"
         d="m 230.75,661.95 0.01,0.03 0.01,0.02 0.01,0.02 0.01,0.02 0.01,0.02 0,0.02 0.01,0.02 0.01,0.02 0,0.01 0.01,0.02 0,0.02 0.01,0.02 0,0.02 0,0.01 0,0.02 0,0.01 0,0.01 c 0,0.29 -0.25,0.53 -0.56,0.53 -0.28,0 -0.46,-0.19 -0.53,-0.45 L 228.57,658 c 0,-0.02 -0.04,-0.13 -0.04,-0.14 0,-0.11 0.25,-0.18 0.33,-0.18 0.06,0 0.07,0.03 0.13,0.16 z"
         id="path3195" /></g>    <g
       ns0:preamble=""
       ns0:text="$T_{1} \\quad T_{2} \\quad T_{3} \\quad T_{4}  $"
       word-spacing="normal"
       letter-spacing="normal"
       font-size-adjust="none"
       font-stretch="normal"
       font-weight="normal"
       font-variant="normal"
       font-style="normal"
       stroke-miterlimit="10.433"
       xml:space="preserve"
       transform="matrix(6,0,0,-6,-125.1977,4724.2538)"
       id="g3193"
       style="font-style:normal;font-variant:normal;font-weight:normal;font-stretch:normal;letter-spacing:normal;word-spacing:normal;text-anchor:start;fill:none;stroke:#000000;stroke-linecap:butt;stroke-linejoin:miter;stroke-miterlimit:10.43299961;stroke-opacity:1;stroke-dasharray:none;stroke-dashoffset:0"><path
         id="path3196"
         d="m 233.06748,662.59656 0.01,0.02 0,0.02 0.01,0.03 0.01,0.02 0,0.02 0.01,0.02 0,0.02 0.01,0.02 0,0.01 0.01,0.02 0.01,0.01 0,0.02 0.01,0.01 0,0.01 0.01,0.01 0.01,0.01 0,0.01 0.01,0.01 0.01,0.01 0,0.01 0.01,0 0.01,0.01 0,0.01 0.01,0 0.01,0.01 0.01,0 0.01,0.01 0.01,0 0.01,0 0.01,0.01 0.01,0 0.01,0 c 0.09,0.02 0.42,0.02 0.63,0.02 1,0 1.45,-0.04 1.45,-0.81 0,-0.15 -0.04,-0.54 -0.08,-0.8 -0.01,-0.04 -0.03,-0.16 -0.03,-0.19 0,-0.06 0.03,-0.13 0.12,-0.13 0.11,0 0.13,0.08 0.15,0.23 l 0.27,1.73 c 0.01,0.04 0.02,0.14 0.02,0.17 0,0.11 -0.1,0.11 -0.27,0.11 h -5.52 c -0.24,0 -0.25,-0.01 -0.32,-0.2 l -0.6,-1.75 c -0.01,-0.02 -0.06,-0.16 -0.06,-0.18 0,-0.05 0.05,-0.11 0.12,-0.11 0.1,0 0.11,0.06 0.17,0.21 0.54,1.54 0.8,1.72 2.27,1.72 h 0.39 c 0.27,0 0.27,-0.04 0.27,-0.12 0,-0.06 -0.03,-0.18 -0.04,-0.21 l -1.33,-5.3 c -0.09,-0.37 -0.12,-0.48 -1.18,-0.48 -0.36,0 -0.42,0 -0.42,-0.19 0,-0.12 0.11,-0.12 0.17,-0.12 0.27,0 0.55,0.03 0.81,0.03 0.28,0 0.57,0.01 0.85,0.01 0.28,0 0.56,-0.01 0.83,-0.01 0.28,0 0.58,-0.03 0.86,-0.03 0.1,0 0.22,0 0.22,0.2 0,0.11 -0.08,0.11 -0.34,0.11 -0.25,0 -0.38,0 -0.64,0.02 -0.28,0.03 -0.36,0.06 -0.36,0.22 0,0.01 0,0.06 0.04,0.21 z"
         inkscape:connector-curvature="0"
         style="fill:#000000;stroke-width:0" /><path
         id="path3198"
         d="m 236.97748,659.48656 0,0.01 0,0.01 0,0.01 0,0.01 0,0 0,0.01 0,0.01 0,0.01 0,0 0,0.01 -0.01,0.01 0,0 0,0.01 0,0 0,0.01 0,0 0,0.01 0,0 0,0.01 0,0.01 -0.01,0.01 0,0 -0.01,0.01 0,0.01 0,0 -0.01,0.01 -0.01,0 0,0 -0.01,0.01 -0.01,0 -0.01,0 -0.01,0 0,0 -0.01,0 0,0 -0.01,0.01 0,0 -0.01,0 -0.01,0 0,0 -0.01,0 -0.01,0 0,0 -0.01,0 -0.01,0 -0.01,0 -0.01,0 0,0 -0.01,0 -0.01,0 c -0.45,-0.44 -1.08,-0.45 -1.37,-0.45 v -0.25 c 0.17,0 0.63,0 1.01,0.2 v -3.55 c 0,-0.23 0,-0.32 -0.69,-0.32 h -0.27 v -0.25 c 0.13,0.01 0.98,0.03 1.24,0.03 0.22,0 1.1,-0.02 1.25,-0.03 v 0.25 h -0.27 c -0.69,0 -0.69,0.09 -0.69,0.32 z"
         inkscape:connector-curvature="0"
         style="fill:#000000;stroke-width:0" /><path
         id="path3200"
         d="m 256.01122,662.25985 0.01,0.02 0.01,0.02 0,0.03 0.01,0.02 0.01,0.02 0,0.02 0.01,0.02 0,0.02 0.01,0.01 0,0.02 0.01,0.01 0.01,0.02 0,0.01 0.01,0.01 0,0.01 0.01,0.01 0.01,0.01 0,0.01 0.01,0.01 0.01,0.01 0,0 0.01,0.01 0.01,0.01 0.01,0 0.01,0.01 0,0 0.01,0.01 0.01,0 0.01,0 0.01,0.01 0.01,0 0.01,0 c 0.09,0.02 0.42,0.02 0.63,0.02 1,0 1.45,-0.04 1.45,-0.81 0,-0.15 -0.04,-0.54 -0.08,-0.8 -0.01,-0.04 -0.03,-0.16 -0.03,-0.19 0,-0.06 0.03,-0.13 0.12,-0.13 0.11,0 0.13,0.08 0.15,0.23 l 0.27,1.73 c 0.01,0.04 0.02,0.14 0.02,0.17 0,0.11 -0.1,0.11 -0.27,0.11 h -5.52 c -0.24,0 -0.25,-0.01 -0.32,-0.2 l -0.6,-1.75 c 0,-0.02 -0.05,-0.16 -0.05,-0.18 0,-0.05 0.05,-0.11 0.11,-0.11 0.1,0 0.11,0.06 0.17,0.21 0.54,1.54 0.8,1.72 2.27,1.72 h 0.39 c 0.28,0 0.28,-0.04 0.28,-0.12 0,-0.06 -0.03,-0.18 -0.04,-0.21 l -1.34,-5.3 c -0.08,-0.37 -0.11,-0.48 -1.18,-0.48 -0.36,0 -0.42,0 -0.42,-0.19 0,-0.12 0.11,-0.12 0.17,-0.12 0.27,0 0.55,0.03 0.82,0.03 0.28,0 0.57,0.01 0.84,0.01 0.28,0 0.56,-0.01 0.83,-0.01 0.29,0 0.59,-0.03 0.87,-0.03 0.09,0 0.21,0 0.21,0.2 0,0.11 -0.07,0.11 -0.33,0.11 -0.25,0 -0.38,0 -0.64,0.02 -0.29,0.03 -0.37,0.06 -0.37,0.22 0,0.01 0,0.06 0.04,0.21 z"
         inkscape:connector-curvature="0"
         style="fill:#000000;stroke-width:0" /><path
         id="path3202"
         d="m 261.10122,655.99985 h -0.23 c -0.02,-0.16 -0.09,-0.57 -0.18,-0.64 -0.06,-0.04 -0.6,-0.04 -0.69,-0.04 h -1.28 c 0.73,0.65 0.97,0.84 1.39,1.17 0.51,0.41 0.99,0.84 0.99,1.5 0,0.84 -0.73,1.36 -1.62,1.36 -0.87,0 -1.45,-0.61 -1.45,-1.25 0,-0.35 0.3,-0.39 0.37,-0.39 0.16,0 0.36,0.12 0.36,0.37 0,0.13 -0.04,0.37 -0.41,0.37 0.22,0.5 0.69,0.65 1.02,0.65 0.7,0 1.06,-0.54 1.06,-1.11 0,-0.6 -0.43,-1.08 -0.65,-1.33 l -1.68,-1.66 c -0.07,-0.06 -0.07,-0.07 -0.07,-0.27 h 2.87 z"
         inkscape:connector-curvature="0"
         style="fill:#000000;stroke-width:0" /><path
         id="path3204"
         d="m 272.90405,662.25985 0,0.02 0.01,0.02 0.01,0.03 0,0.02 0.01,0.02 0,0.02 0.01,0.02 0.01,0.02 0,0.01 0.01,0.02 0,0.01 0.01,0.02 0.01,0.01 0,0.01 0.01,0.01 0,0.01 0.01,0.01 0.01,0.01 0,0.01 0.01,0.01 0.01,0 0.01,0.01 0,0.01 0.01,0 0.01,0.01 0.01,0 0.01,0.01 0.01,0 0.01,0 0.01,0.01 0.01,0 0.01,0 c 0.09,0.02 0.41,0.02 0.62,0.02 1.01,0 1.46,-0.04 1.46,-0.81 0,-0.15 -0.04,-0.54 -0.08,-0.8 -0.01,-0.04 -0.03,-0.16 -0.03,-0.19 0,-0.06 0.03,-0.13 0.12,-0.13 0.11,0 0.13,0.08 0.15,0.23 l 0.26,1.73 c 0.01,0.04 0.02,0.14 0.02,0.17 0,0.11 -0.09,0.11 -0.26,0.11 h -5.53 c -0.23,0 -0.25,-0.01 -0.32,-0.2 l -0.59,-1.75 c -0.01,-0.02 -0.06,-0.16 -0.06,-0.18 0,-0.05 0.05,-0.11 0.12,-0.11 0.1,0 0.11,0.06 0.17,0.21 0.54,1.54 0.79,1.72 2.27,1.72 h 0.38 c 0.28,0 0.28,-0.04 0.28,-0.12 0,-0.06 -0.03,-0.18 -0.04,-0.21 l -1.33,-5.3 c -0.09,-0.37 -0.12,-0.48 -1.18,-0.48 -0.36,0 -0.42,0 -0.42,-0.19 0,-0.12 0.11,-0.12 0.17,-0.12 0.26,0 0.54,0.03 0.81,0.03 0.28,0 0.57,0.01 0.85,0.01 0.28,0 0.56,-0.01 0.82,-0.01 0.29,0 0.59,-0.03 0.87,-0.03 0.1,0 0.22,0 0.22,0.2 0,0.11 -0.08,0.11 -0.34,0.11 -0.25,0 -0.38,0 -0.64,0.02 -0.29,0.03 -0.36,0.06 -0.36,0.22 0,0.01 0,0.06 0.03,0.21 z"
         inkscape:connector-curvature="0"
         style="fill:#000000;stroke-width:0" /><path
         id="path3206"
         d="m 276.37405,657.04985 0.05,0 0.05,0 0.05,-0.01 0.05,0 0.05,-0.01 0.04,-0.02 0.05,-0.01 0.04,-0.02 0.04,-0.02 0.04,-0.02 0.04,-0.02 0.04,-0.02 0.03,-0.03 0.04,-0.03 0.03,-0.03 0.03,-0.04 0.03,-0.03 0.03,-0.04 0.03,-0.04 0.02,-0.05 0.03,-0.04 0.02,-0.05 0.02,-0.05 0.02,-0.05 0.01,-0.05 0.02,-0.06 0.01,-0.05 0.01,-0.06 0.01,-0.07 0,-0.06 0.01,-0.07 0,-0.07 c 0,-0.86 -0.5,-1.12 -0.91,-1.12 -0.28,0 -0.89,0.08 -1.18,0.49 0.32,0.02 0.4,0.24 0.4,0.39 0,0.22 -0.17,0.38 -0.38,0.38 -0.2,0 -0.39,-0.11 -0.39,-0.4 0,-0.65 0.72,-1.08 1.56,-1.08 0.97,0 1.64,0.65 1.64,1.34 0,0.55 -0.44,1.09 -1.21,1.25 0.73,0.26 1,0.78 1,1.21 0,0.55 -0.64,0.96 -1.41,0.96 -0.77,0 -1.37,-0.38 -1.37,-0.93 0,-0.24 0.16,-0.37 0.37,-0.37 0.21,0 0.35,0.16 0.35,0.35 0,0.2 -0.14,0.35 -0.35,0.36 0.24,0.31 0.72,0.39 0.98,0.39 0.31,0 0.75,-0.16 0.75,-0.76 0,-0.29 -0.1,-0.61 -0.28,-0.83 -0.23,-0.26 -0.42,-0.28 -0.77,-0.3 -0.17,-0.01 -0.19,-0.01 -0.22,-0.02 -0.02,0 -0.07,-0.01 -0.07,-0.09 0,-0.1 0.06,-0.1 0.18,-0.1 z"
         inkscape:connector-curvature="0"
         style="fill:#000000;stroke-width:0" /><path
         id="path3208"
         d="m 287.76656,662.25985 0.01,0.02 0,0.02 0.01,0.03 0.01,0.02 0,0.02 0.01,0.02 0,0.02 0.01,0.02 0.01,0.01 0,0.02 0.01,0.01 0,0.02 0.01,0.01 0.01,0.01 0,0.01 0.01,0.01 0,0.01 0.01,0.01 0.01,0.01 0,0.01 0.01,0 0.01,0.01 0.01,0.01 0,0 0.01,0.01 0.01,0 0.01,0.01 0.01,0 0.01,0 0.01,0.01 0.01,0 0.01,0 c 0.09,0.02 0.42,0.02 0.63,0.02 1,0 1.45,-0.04 1.45,-0.81 0,-0.15 -0.04,-0.54 -0.08,-0.8 -0.01,-0.04 -0.03,-0.16 -0.03,-0.19 0,-0.06 0.03,-0.13 0.12,-0.13 0.11,0 0.13,0.08 0.15,0.23 l 0.27,1.73 c 0.01,0.04 0.02,0.14 0.02,0.17 0,0.11 -0.1,0.11 -0.27,0.11 h -5.52 c -0.24,0 -0.25,-0.01 -0.32,-0.2 l -0.6,-1.75 c -0.01,-0.02 -0.06,-0.16 -0.06,-0.18 0,-0.05 0.05,-0.11 0.12,-0.11 0.1,0 0.11,0.06 0.17,0.21 0.54,1.54 0.8,1.72 2.27,1.72 h 0.39 c 0.28,0 0.28,-0.04 0.28,-0.12 0,-0.06 -0.03,-0.18 -0.04,-0.21 l -1.34,-5.3 c -0.09,-0.37 -0.12,-0.48 -1.18,-0.48 -0.36,0 -0.42,0 -0.42,-0.19 0,-0.12 0.11,-0.12 0.17,-0.12 0.27,0 0.55,0.03 0.82,0.03 0.28,0 0.56,0.01 0.84,0.01 0.28,0 0.56,-0.01 0.83,-0.01 0.29,0 0.58,-0.03 0.86,-0.03 0.1,0 0.22,0 0.22,0.2 0,0.11 -0.08,0.11 -0.34,0.11 -0.25,0 -0.37,0 -0.63,0.02 -0.29,0.03 -0.37,0.06 -0.37,0.22 0,0.01 0,0.06 0.04,0.21 z"
         inkscape:connector-curvature="0"
         style="fill:#000000;stroke-width:0" /><path
         id="path3210"
         d="m 293.02656,655.86985 v 0.25 h -0.77 v 3.1 c 0,0.15 0,0.2 -0.16,0.2 -0.08,0 -0.11,0 -0.18,-0.1 l -2.3,-3.2 v -0.25 h 2.04 l 0.05,0.25 h -1.83 l 1.83,2.55 v -2.55 l -0.05,-0.25 v -0.57 c 0,-0.23 0,-0.32 -0.56,-0.32 h -0.19 v -0.25 c 0.35,0.02 0.8,0.03 1.05,0.03 0.26,0 0.7,-0.01 1.05,-0.03 v 0.25 h -0.19 c -0.56,0 -0.56,0.09 -0.56,0.32 v 0.57 z"
         inkscape:connector-curvature="0"
         style="fill:#000000;stroke-width:0" /><path
         id="path3196-5"
         d="m 216.68049,722.25133 0.01,0.02 0,0.02 0.01,0.03 0.01,0.02 0,0.02 0.01,0.02 0,0.02 0.01,0.02 0,0.01 0.01,0.02 0.01,0.01 0,0.02 0.01,0.01 0,0.01 0.01,0.01 0.01,0.01 0,0.01 0.01,0.01 0.01,0.01 0,0.01 0.01,0 0.01,0.01 0,0.01 0.01,0 0.01,0.01 0.01,0 0.01,0.01 0.01,0 0.01,0 0.01,0.01 0.01,0 0.01,0 c 0.09,0.02 0.42,0.02 0.63,0.02 1,0 1.45,-0.04 1.45,-0.81 0,-0.15 -0.04,-0.54 -0.08,-0.8 -0.01,-0.04 -0.03,-0.16 -0.03,-0.19 0,-0.06 0.03,-0.13 0.12,-0.13 0.11,0 0.13,0.08 0.15,0.23 l 0.27,1.73 c 0.01,0.04 0.02,0.14 0.02,0.17 0,0.11 -0.1,0.11 -0.27,0.11 h -5.52 c -0.24,0 -0.25,-0.01 -0.32,-0.2 l -0.6,-1.75 c -0.01,-0.02 -0.06,-0.16 -0.06,-0.18 0,-0.05 0.05,-0.11 0.12,-0.11 0.1,0 0.11,0.06 0.17,0.21 0.54,1.54 0.8,1.72 2.27,1.72 h 0.39 c 0.27,0 0.27,-0.04 0.27,-0.12 0,-0.06 -0.03,-0.18 -0.04,-0.21 l -1.33,-5.3 c -0.09,-0.37 -0.12,-0.48 -1.18,-0.48 -0.36,0 -0.42,0 -0.42,-0.19 0,-0.12 0.11,-0.12 0.17,-0.12 0.27,0 0.55,0.03 0.81,0.03 0.28,0 0.57,0.01 0.85,0.01 0.28,0 0.56,-0.01 0.83,-0.01 0.28,0 0.58,-0.03 0.86,-0.03 0.1,0 0.22,0 0.22,0.2 0,0.11 -0.08,0.11 -0.34,0.11 -0.25,0 -0.38,0 -0.64,0.02 -0.28,0.03 -0.36,0.06 -0.36,0.22 0,0.01 0,0.06 0.04,0.21 z"
         inkscape:connector-curvature="0"
         style="font-style:normal;font-variant:normal;font-weight:normal;font-stretch:normal;letter-spacing:normal;word-spacing:normal;text-anchor:start;fill:#000000;stroke:#000000;stroke-width:0;stroke-linecap:butt;stroke-linejoin:miter;stroke-miterlimit:10.43299961;stroke-opacity:1;stroke-dasharray:none;stroke-dashoffset:0" /></g>  </g>
</svg>
